<?xml version="1.0" encoding="utf-8"?>
<svg version="1.1" xmlns:xlink="http://www.w3.org/1999/xlink" width="42px" height="57px" xmlns="http://www.w3.org/2000/svg">
  <g transform="matrix(1 0 0 1 -34 -159 )">
    <path d="M 23.287443267776094 42.940848214285715  L 23.319213313161875 33.49386160714286  L 28.021180030257185 38.20145089285714  L 23.287443267776094 42.940848214285715  Z M 23.319213313161875 23.506138392857146  L 23.287443267776094 14.059151785714285  L 28.021180030257185 18.798549107142854  L 23.319213313161875 23.506138392857146  Z M 19.157337367624812 33.55747767857143  L 19.157337367624812 52.9921875  L 33.89863842662633 38.23325892857143  L 24.17700453857791 28.5  L 33.89863842662633 18.76674107142857  L 19.157337367624812 4.0078125  L 19.157337367624812 23.44252232142857  L 11.055975794251136 15.331473214285715  L 8.101361573373676 18.289620535714285  L 18.267776096822995 28.5  L 8.101361573373676 38.710379464285715  L 11.055975794251136 41.668526785714285  L 19.157337367624812 33.55747767857143  Z M 40.983358547655065 16.87416294642857  C 41.66111951588503 20.19280133928571  42 24.068080357142854  42 28.5  C 42 32.93191964285714  41.66111951588503 36.807198660714285  40.983358547655065 40.12583705357143  C 40.30559757942512 43.44447544642856  39.37897125567322 46.169363839285715  38.203479576399396 48.30050223214286  C 37.02798789712556 50.431640625  35.54009077155825 52.154575892857146  33.73978819969743 53.469308035714285  C 31.939485627836614 54.78404017857143  30.017397881996978 55.70117187500001  27.973524962178516 56.220703125  C 25.92965204236006 56.74023437499999  23.60514372163389 57  21 57  C 18.394856278366113 57  16.07034795763994 56.74023437499999  14.026475037821482 56.220703125  C 11.982602118003026 55.70117187500001  10.06051437216339 54.78404017857143  8.260211800302573 53.469308035714285  C 6.459909228441756 52.154575892857146  4.972012102874433 50.431640625  3.796520423600605 48.30050223214286  C 2.6210287443267775 46.169363839285715  1.6944024205748867 43.44447544642856  1.0166414523449319 40.12583705357143  C 0.3388804841149775 36.807198660714285  0 32.93191964285714  0 28.5  C 0 24.068080357142854  0.3388804841149775 20.19280133928571  1.0166414523449319 16.87416294642857  C 1.6944024205748867 13.555524553571422  2.6210287443267775 10.830636160714285  3.796520423600605 8.699497767857146  C 4.972012102874433 6.568359375  6.459909228441756 4.845424107142857  8.260211800302573 3.5306919642857153  C 10.06051437216339 2.2159598214285676  11.982602118003026 1.2988281249999958  14.026475037821482 0.779296875  C 16.07034795763994 0.2597656250000042  18.394856278366113 0  21 0  C 23.60514372163389 0  25.92965204236006 0.2597656250000042  27.973524962178516 0.779296875  C 30.017397881996978 1.2988281249999958  31.939485627836614 2.2159598214285676  33.73978819969743 3.5306919642857153  C 35.54009077155825 4.845424107142857  37.02798789712556 6.568359375  38.203479576399396 8.699497767857146  C 39.37897125567322 10.830636160714285  40.30559757942512 13.555524553571422  40.983358547655065 16.87416294642857  Z " fill-rule="nonzero" fill="#2363d9" stroke="none" transform="matrix(1 0 0 1 34 159 )" />
  </g>
</svg>