<?xml version="1.0" encoding="utf-8"?>
<svg version="1.1" xmlns:xlink="http://www.w3.org/1999/xlink" width="50px" height="50px" xmlns="http://www.w3.org/2000/svg">
  <g transform="matrix(1 0 0 1 -434 -375 )">
    <path d="M 28.125 41.86197916666667  C 28.68923611111111 41.86197916666667  29.17751736111111 41.65581597222223  29.58984375 41.24348958333333  L 32.91015625 37.92317708333333  C 33.32248263888889 37.51085069444444  33.52864583333333 37.02256944444444  33.52864583333333 36.458333333333336  C 33.52864583333333 35.89409722222222  33.32248263888889 35.40581597222222  32.91015625 34.993489583333336  L 22.916666666666664 25  L 32.91015625 15.006510416666668  C 33.32248263888889 14.594184027777773  33.52864583333333 14.105902777777773  33.52864583333333 13.541666666666668  C 33.52864583333333 12.977430555555552  33.32248263888889 12.489149305555552  32.91015625 12.076822916666668  L 29.58984375 8.756510416666668  C 29.17751736111111 8.344184027777773  28.68923611111111 8.138020833333332  28.125 8.138020833333332  C 27.56076388888889 8.138020833333332  27.07248263888889 8.344184027777773  26.66015625 8.756510416666668  L 11.881510416666668 23.53515625  C 11.469184027777779 23.94748263888889  11.263020833333332 24.43576388888889  11.263020833333332 25  C 11.263020833333332 25.564236111111104  11.469184027777779 26.052517361111104  11.881510416666668 26.46484375  L 26.66015625 41.24348958333333  C 27.07248263888889 41.65581597222223  27.56076388888889 41.86197916666667  28.125 41.86197916666667  Z M 46.64713541666667 12.451171875  C 48.882378472222214 16.281467013888886  50 20.464409722222214  50 25  C 50 29.53559027777778  48.882378472222214 33.71853298611111  46.64713541666667 37.548828125  C 44.411892361111114 41.37912326388889  41.37912326388889 44.41189236111111  37.548828125 46.64713541666667  C 33.718532986111114 48.88237847222223  29.53559027777778 50  25 50  C 20.464409722222225 50  16.28146701388889 48.88237847222223  12.451171875 46.64713541666667  C 8.620876736111112 44.41189236111111  5.588107638888889 41.37912326388889  3.3528645833333335 37.548828125  C 1.1176215277777777 33.71853298611111  0 29.53559027777778  0 25  C 0 20.464409722222214  1.1176215277777777 16.281467013888886  3.3528645833333335 12.451171875  C 5.588107638888889 8.62087673611111  8.620876736111112 5.588107638888884  12.451171875 3.3528645833333313  C 16.28146701388889 1.1176215277777735  20.464409722222225 0  25 0  C 29.53559027777778 0  33.718532986111114 1.1176215277777735  37.548828125 3.3528645833333313  C 41.37912326388889 5.588107638888884  44.411892361111114 8.62087673611111  46.64713541666667 12.451171875  Z " fill-rule="nonzero" fill="#000000" stroke="none" fill-opacity="0.6901960784313725" transform="matrix(1 0 0 1 434 375 )" />
  </g>
</svg>