<?xml version="1.0" encoding="utf-8"?>
<svg version="1.1" xmlns:xlink="http://www.w3.org/1999/xlink" width="51px" height="53px" xmlns="http://www.w3.org/2000/svg">
  <g transform="matrix(1 0 0 1 -74 -54 )">
    <path d="M 50.89133522727273 41.06747159090909  C 50.96377840909091 41.24313446969696  51 41.50662878787878  51 41.85795454545455  C 51 42.53551136363636  50.87926136363637 43.42009943181818  50.63778409090909 44.51171875  C 50.39630681818183 45.60333806818182  50.14275568181819 46.46283143939394  49.87713068181819 47.09019886363636  C 49.37002840909091 48.34493371212121  47.897017045454554 49.67495265151515  45.45809659090909 51.08025568181818  C 43.188210227272734 52.36008522727273  40.94247159090909 53  38.72088068181819 53  C 38.06889204545455 53  37.42897727272728 52.95608428030303  36.80113636363636 52.86825284090909  C 36.17329545454546 52.780421401515156  35.479048295454554 52.62357954545455  34.71839488636364 52.39772727272727  C 33.95774147727273 52.171875  33.39026988636364 51.989938446969695  33.01598011363636 51.85191761363637  C 32.64169034090909 51.71389678030303  31.971590909090914 51.45667613636363  31.005681818181817 51.08025568181818  C 30.03977272727273 50.70383522727273  29.448153409090914 50.47798295454545  29.230823863636363 50.40269886363637  C 26.864346590909097 49.52438446969697  24.751420454545457 48.48295454545455  22.892045454545453 47.27840909090909  C 19.82528409090909 45.29592803030303  16.63778409090909 42.58570075757576  13.329545454545453 39.14772727272727  C 10.021306818181818 35.70975378787878  7.413352272727274 32.39725378787879  5.505681818181818 29.210227272727273  C 4.346590909090909 27.277935606060606  3.3444602272727275 25.082149621212118  2.4992897727272725 22.62286931818182  C 2.426846590909091 22.39701704545454  2.2095170454545454 21.782196969696965  1.8473011363636365 20.778409090909093  C 1.4850852272727273 19.77462121212121  1.237571022727273 19.078243371212118  1.1047585227272727 18.68927556818182  C 0.9719460227272727 18.300307765151512  0.796875 17.710582386363633  0.5795454545454546 16.92009943181818  C 0.36221590909090906 16.12961647727272  0.21129261363636367 15.408143939393936  0.12677556818181818 14.75568181818182  C 0.04225852272727272 14.103219696969692  0 13.438210227272727  0 12.760653409090907  C 0 10.451941287878785  0.6157670454545454 8.118134469696965  1.8473011363636365 5.759232954545453  C 3.199573863636364 3.224668560606052  4.479403409090909 1.6938920454545465  5.686789772727273 1.166903409090907  C 6.290482954545455 0.8908617424242383  7.117542613636363 0.6273674242424185  8.16796875 0.3764204545454535  C 9.218394886363637 0.12547348484848253  10.069602272727273 0  10.72159090909091 0  C 11.059659090909092 0  11.313210227272728 0.037642045454546524  11.482244318181818 0.11292613636363369  C 11.91690340909091 0.2634943181818198  12.556818181818182 1.2170928030303023  13.401988636363635 2.973721590909093  C 13.667613636363637 3.4505208333333255  14.029829545454549 4.128077651515145  14.488636363636365 5.006392045454547  C 14.947443181818182 5.884706439393936  15.37002840909091 6.68146306818182  15.756392045454547 7.39666193181818  C 16.142755681818183 8.111860795454547  16.517045454545453 8.783143939393936  16.879261363636363 9.410511363636367  C 16.951704545454547 9.510890151515145  17.16299715909091 9.824573863636367  17.513139204545453 10.3515625  C 17.863281250000004 10.878551136363633  18.12286931818182 11.323982007575756  18.291903409090907 11.687855113636367  C 18.4609375 12.051728219696965  18.545454545454547 12.409327651515145  18.545454545454547 12.760653409090907  C 18.545454545454547 13.262547348484842  18.20134943181818 13.889914772727273  17.513139204545453 14.64275568181818  C 16.824928977272727 15.395596590909093  16.076349431818183 16.085700757575754  15.267400568181818 16.71306818181818  C 14.458451704545455 17.3404356060606  13.709872159090908 18.005445075757574  13.021661931818182 18.708096590909093  C 12.333451704545453 19.410748106060606  11.98934659090909 19.987926136363633  11.98934659090909 20.43963068181818  C 11.98934659090909 20.665482954545453  12.04971590909091 20.947798295454547  12.170454545454547 21.286576704545453  C 12.291193181818183 21.625355113636367  12.393821022727273 21.882575757575754  12.478338068181818 22.058238636363633  C 12.562855113636365 22.233901515151512  12.731889204545453 22.53503787878788  12.985440340909092 22.961647727272727  C 13.238991477272727 23.388257575757574  13.37784090909091 23.6266571969697  13.401988636363635 23.676846590909093  C 15.237215909090908 27.11482007575757  17.338068181818183 30.063446969696965  19.704545454545453 32.52272727272727  C 22.07102272727273 34.98200757575757  24.908380681818183 37.16524621212121  28.216619318181817 39.07244318181819  C 28.264914772727273 39.097537878787875  28.494318181818183 39.24183238636364  28.904829545454547 39.50532670454545  C 29.31534090909091 39.76882102272727  29.60511363636364 39.94448390151515  29.77414772727273 40.03231534090909  C 29.94318181818182 40.12014678030303  30.19069602272727 40.226799242424235  30.516690340909093 40.35227272727273  C 30.842684659090907 40.47774621212121  31.114346590909093 40.54048295454545  31.331676136363637 40.54048295454545  C 31.76633522727273 40.54048295454545  32.32173295454545 40.18288352272727  32.99786931818181 39.46768465909091  C 33.67400568181818 38.75248579545455  34.31392045454546 37.97455018939394  34.91761363636364 37.13387784090909  C 35.52130681818182 36.293205492424235  36.18536931818181 35.51526988636364  36.90980113636364 34.80007102272727  C 37.63423295454545 34.08487215909091  38.23792613636364 33.72727272727273  38.72088068181819 33.72727272727273  C 39.05894886363637 33.72727272727273  39.403053977272734 33.815104166666664  39.75319602272727 33.99076704545455  C 40.10333806818182 34.16642992424242  40.53196022727273 34.436197916666664  41.0390625 34.80007102272727  C 41.54616477272727 35.163944128787875  41.84801136363637 35.38352272727273  41.94460227272727 35.45880681818181  C 42.54829545454546 35.83522727272727  43.19424715909091 36.22419507575757  43.88245738636364 36.62571022727273  C 44.57066761363636 37.027225378787875  45.33735795454546 37.46638257575757  46.18252840909091 37.94318181818181  C 47.02769886363637 38.419981060606055  47.67968750000001 38.79640151515151  48.13849431818181 39.07244318181819  C 49.82883522727273 39.95075757575757  50.74644886363636 40.61576704545455  50.89133522727273 41.06747159090909  Z " fill-rule="nonzero" fill="#0356f9" stroke="none" transform="matrix(1 0 0 1 74 54 )" />
  </g>
</svg>