<?xml version="1.0" encoding="utf-8"?>
<svg version="1.1" xmlns:xlink="http://www.w3.org/1999/xlink" width="69px" height="62px" xmlns="http://www.w3.org/2000/svg">
  <g transform="matrix(1 0 0 1 -36 -49 )">
    <path d="M 39.05261692650335 52.10757211538462  C 39.29593541202673 51.87159455128205  39.41759465478842 51.579727564102555  39.41759465478842 51.23197115384615  L 39.41759465478842 44.15264423076923  C 39.41759465478842 43.80488782051282  39.29593541202673 43.51302083333333  39.05261692650335 43.27704326923077  C 38.80929844097996 43.041065705128204  38.52115812917595 42.92307692307692  38.18819599109132 42.92307692307692  L 30.811804008908688 42.92307692307692  C 30.478841870824056 42.92307692307692  30.19070155902005 43.041065705128204  29.94738307349666 43.27704326923077  C 29.70406458797327 43.51302083333333  29.58240534521158 43.80488782051282  29.58240534521158 44.15264423076923  L 29.58240534521158 51.23197115384615  C 29.58240534521158 51.579727564102555  29.70406458797327 51.87159455128205  29.94738307349666 52.10757211538462  C 30.19070155902005 52.343549679487175  30.478841870824056 52.46153846153846  30.811804008908688 52.46153846153846  L 38.18819599109132 52.46153846153846  C 38.52115812917595 52.46153846153846  38.80929844097996 52.343549679487175  39.05261692650335 52.10757211538462  Z M 38.937360801781736 37.91165865384615  C 39.180679287305125 37.75020032051282  39.31514476614699 37.54527243589744  39.34075723830735 37.296875  L 40.03229398663697 20.19471153846154  C 40.03229398663697 19.896634615384617  39.90423162583519 19.660657051282044  39.648106904231625 19.486778846153843  C 39.315144766147 19.21354166666666  39.00779510022272 19.076923076923077  38.7260579064588 19.076923076923077  L 30.2739420935412 19.076923076923077  C 29.99220489977729 19.076923076923077  29.68485523385301 19.21354166666666  29.351893095768375 19.486778846153843  C 29.095768374164813 19.660657051282044  28.967706013363028 19.92147435897435  28.967706013363028 20.269230769230766  L 29.620824053452115 37.296875  C 29.620824053452115 37.54527243589744  29.7488864142539 37.75020032051282  30.005011135857462 37.91165865384615  C 30.261135857461028 38.07311698717948  30.568485523385302 38.15384615384615  30.927060133630288 38.15384615384615  L 38.034521158129174 38.15384615384615  C 38.39309576837417 38.15384615384615  38.694042316258354 38.07311698717948  38.937360801781736 37.91165865384615  Z M 36.99721603563474 0.670673076923078  C 37.76559020044544 1.117788461538461  38.36748329621381 1.726362179487175  38.80289532293987 2.496394230769234  L 68.30846325167037 54.95793269230769  C 69.20489977728286 56.52283653846154  69.1792873051225 58.08774038461538  68.2316258351893 59.65264423076923  C 67.79621380846325 60.372996794871796  67.20072383073497 60.944310897435905  66.44515590200446 61.36658653846154  C 65.68958797327394 61.788862179487175  64.87639198218264 62  64.00556792873051 62  L 4.994432071269488 62  C 4.123608017817372 62  3.310412026726058 61.788862179487175  2.5548440979955456 61.36658653846154  C 1.7992761692650334 60.944310897435905  1.2037861915367485 60.372996794871796  0.7683741648106904 59.65264423076923  C -0.17928730512249447 58.08774038461538  -0.20489977728285083 56.52283653846154  0.6915367483296214 54.95793269230769  L 30.197104677060132 2.496394230769234  C 30.632516703786198 1.726362179487175  31.23440979955457 1.117788461538461  32.00278396436526 0.670673076923078  C 32.77115812917595 0.22355769230769496  33.60356347438753 0  34.5 0  C 35.39643652561247 0  36.228841870824056 0.22355769230769496  36.99721603563474 0.670673076923078  Z " fill-rule="nonzero" fill="#ff0101" stroke="none" transform="matrix(1 0 0 1 36 49 )" />
  </g>
</svg>