<?xml version="1.0" encoding="utf-8"?>
<svg version="1.1" xmlns:xlink="http://www.w3.org/1999/xlink" width="19px" height="18px" xmlns="http://www.w3.org/2000/svg">
  <g transform="matrix(1 0 0 1 -294 -13 )">
    <path d="M 17.725911458333336 4.482421875  C 18.575303819444443 5.861328124999998  19 7.367187499999997  19 9  C 19 10.6328125  18.575303819444443 12.138671874999998  17.725911458333336 13.517578125  C 16.876519097222225 14.896484375  15.724066840277779 15.98828125  14.2685546875 16.79296875  C 12.813042534722225 17.59765625  11.223524305555555 18  9.5 18  C 7.776475694444445 18  6.186957465277778 17.59765625  4.7314453125 16.79296875  C 3.2759331597222223 15.98828125  2.123480902777778 14.896484375  1.2740885416666667 13.517578125  C 0.42469618055555547 12.138671874999998  0 10.6328125  0 9  C 0 7.367187499999997  0.42469618055555547 5.861328124999998  1.2740885416666667 4.482421875  C 2.123480902777778 3.103515625  3.2759331597222223 2.0117187499999982  4.7314453125 1.2070312499999993  C 6.186957465277778 0.40234374999999845  7.776475694444445 0  9.5 0  C 11.223524305555555 0  12.813042534722225 0.40234374999999845  14.2685546875 1.2070312499999993  C 15.724066840277779 2.0117187499999982  16.876519097222225 3.103515625  17.725911458333336 4.482421875  Z " fill-rule="nonzero" fill="#2363d9" stroke="none" transform="matrix(1 0 0 1 294 13 )" />
  </g>
</svg>