<?xml version="1.0" encoding="utf-8"?>
<svg version="1.1" xmlns:xlink="http://www.w3.org/1999/xlink" width="55px" height="56px" xmlns="http://www.w3.org/2000/svg">
  <defs>
    <filter x="1195px" y="716px" width="55px" height="56px" filterUnits="userSpaceOnUse" id="filter109">
      <feOffset dx="0" dy="0" in="SourceAlpha" result="shadowOffsetInner" />
      <feGaussianBlur stdDeviation="2.5" in="shadowOffsetInner" result="shadowGaussian" />
      <feComposite in2="shadowGaussian" operator="atop" in="SourceAlpha" result="shadowComposite" />
      <feColorMatrix type="matrix" values="0 0 0 0 0  0 0 0 0 0  0 0 0 0 0  0 0 0 0.9921568627450981 0  " in="shadowComposite" />
    </filter>
    <g id="widget110">
      <path d="M 27.802734375 28.42057291666667  C 29.267578125 26.92317708333333  30 25.116319444444443  30 23  C 30 20.88368055555555  29.267578125 19.076822916666664  27.802734375 17.579427083333336  C 26.337890625 16.08203125  24.570312500000004 15.333333333333336  22.5 15.333333333333336  C 20.4296875 15.333333333333336  18.662109375 16.08203125  17.197265625 17.579427083333336  C 15.732421875 19.076822916666664  15 20.88368055555555  15 23  C 15 25.116319444444443  15.732421875 26.92317708333333  17.197265625 28.42057291666667  C 18.662109375 29.91796875  20.4296875 30.66666666666667  22.5 30.66666666666667  C 24.570312500000004 30.66666666666667  26.337890625 29.91796875  27.802734375 28.42057291666667  Z M 44.765625 19.031901041666664  C 44.921875 19.241536458333336  45 19.47612847222222  45 19.735677083333336  L 45 26.38411458333333  C 45 26.62369791666667  44.921875 26.853298611111114  44.765625 27.07291666666667  C 44.60937500000001 27.292534722222218  44.4140625 27.42230902777777  44.1796875 27.46223958333333  L 38.759765625 28.30078125  C 38.38867187500001 29.37890625  38.00781250000001 30.287326388888886  37.6171875 31.02604166666667  C 38.30078125000001 32.02430555555556  39.345703125 33.401909722222214  40.751953125 35.158854166666664  C 40.947265625 35.3984375  41.044921875 35.64800347222222  41.044921875 35.907552083333336  C 41.044921875 36.16710069444445  40.95703125 36.396701388888886  40.78125 36.596354166666664  C 40.25390625 37.33506944444445  39.287109375 38.41319444444445  37.880859375 39.830729166666664  C 36.474609375 41.248263888888886  35.55664062500001 41.95703125  35.126953125 41.95703125  C 34.892578125 41.95703125  34.638671875 41.8671875  34.365234375 41.6875  L 30.322265625 38.453125  C 29.462890625 38.912326388888886  28.574218750000004 39.291666666666664  27.65625 39.591145833333336  C 27.343750000000004 42.306423611111114  27.060546875000004 44.16319444444445  26.806640625 45.161458333333336  C 26.669921875 45.720486111111114  26.318359375 46  25.751953125 46  L 19.248046875 46  C 18.974609375000004 46  18.7353515625 45.91514756944445  18.5302734375 45.745442708333336  C 18.3251953125 45.57573784722222  18.212890625000004 45.361111111111114  18.193359375 45.1015625  L 17.373046875 39.591145833333336  C 16.416015625000004 39.271701388888886  15.537109375000002 38.90234375  14.736328125 38.483072916666664  L 10.60546875 41.6875  C 10.410156250000002 41.8671875  10.166015625 41.95703125  9.873046875 41.95703125  C 9.599609375 41.95703125  9.355468750000002 41.84722222222222  9.140625 41.627604166666664  C 6.6796875 39.3515625  5.068359375 37.674479166666664  4.306640625 36.596354166666664  C 4.169921875000001 36.396701388888886  4.1015625 36.16710069444445  4.1015625 35.907552083333336  C 4.1015625 35.66796875  4.179687500000001 35.43836805555555  4.3359375 35.21875  C 4.62890625 34.799479166666664  5.126953125 34.13563368055556  5.830078125 33.22721354166667  C 6.533203125 32.31879340277777  7.060546875 31.615017361111104  7.412109375 31.11588541666667  C 6.884765625 30.11762152777777  6.484375000000001 29.12934027777777  6.2109375 28.15104166666667  L 0.849609375 27.34244791666667  C 0.5957031250000001 27.302517361111114  0.390625 27.177734375  0.234375 26.96809895833333  C 0.078125 26.75846354166667  0 26.52387152777777  0 26.26432291666667  L 0 19.615885416666664  C 0 19.376302083333336  0.078125 19.146701388888886  0.234375 18.927083333333336  C 0.390625 18.70746527777778  0.5761718750000001 18.57769097222222  0.791015625 18.537760416666664  L 6.240234375 17.69921875  C 6.513671875 16.78081597222222  6.89453125 15.862413194444443  7.3828125 14.944010416666664  C 6.6015625 13.805989583333336  5.556640625000001 12.428385416666664  4.248046875 10.811197916666664  C 4.052734375 10.571614583333336  3.955078125 10.33203125  3.955078125 10.092447916666664  C 3.955078125 9.892795138888886  4.04296875 9.663194444444438  4.21875 9.403645833333336  C 4.7265625 8.684895833333336  5.688476562500001 7.611762152777773  7.1044921875 6.184244791666665  C 8.520507812500002 4.756727430555552  9.443359375000002 4.04296875  9.873046875 4.04296875  C 10.126953125 4.04296875  10.380859375000002 4.142795138888887  10.634765625 4.342447916666665  L 14.677734375 7.546875  C 15.537109375000002 7.087673611111108  16.425781250000004 6.708333333333335  17.34375 6.408854166666665  C 17.656250000000004 3.6935763888888866  17.939453125 1.8368055555555516  18.193359375 0.838541666666665  C 18.330078125 0.2795138888888866  18.681640625 0  19.248046875 0  L 25.751953125 0  C 26.025390625000004 0  26.2646484375 0.08485243055555158  26.4697265625 0.25455729166666496  C 26.6748046875 0.42426215277777324  26.787109375 0.6388888888888866  26.806640625 0.8984375  L 27.626953125 6.408854166666665  C 28.583984375 6.728298611111108  29.462890625 7.09765625  30.263671875 7.516927083333335  L 34.423828125 4.3125  C 34.599609375 4.1328125  34.833984375 4.04296875  35.126953125 4.04296875  C 35.38085937500001 4.04296875  35.625 4.142795138888887  35.859375 4.342447916666665  C 38.37890625 6.718315972222221  39.990234375 8.415364583333336  40.693359375 9.43359375  C 40.83007812500001 9.593315972222221  40.8984375 9.812934027777773  40.8984375 10.092447916666664  C 40.8984375 10.33203125  40.82031250000001 10.561631944444438  40.6640625 10.78125  C 40.37109375 11.200520833333336  39.873046875 11.864366319444438  39.169921875 12.772786458333336  C 38.466796875 13.681206597222221  37.939453125 14.384982638888886  37.587890625 14.884114583333336  C 38.09570312500001 15.882378472222221  38.49609375 16.86067708333333  38.7890625 17.819010416666664  L 44.150390625 18.657552083333336  C 44.404296875 18.697482638888886  44.60937500000001 18.822265624999996  44.765625 19.031901041666664  Z " fill-rule="nonzero" fill="#fff6f6" stroke="none" transform="matrix(1 0 0 1 1200 721 )" />
    </g>
  </defs>
  <g transform="matrix(1 0 0 1 -1195 -716 )">
    <use xlink:href="#widget110" filter="url(#filter109)" />
    <use xlink:href="#widget110" />
  </g>
</svg>