<?xml version="1.0" encoding="utf-8"?>
<svg version="1.1" xmlns:xlink="http://www.w3.org/1999/xlink" width="18px" height="5px" xmlns="http://www.w3.org/2000/svg">
  <g transform="matrix(1 0 0 1 -21 -11 )">
    <path d="M 17.642045454545453 0.36458333333333315  C 17.88068181818182 0.6076388888888867  18 0.9027777777777768  18 1.25  L 18 3.75  C 18 4.097222222222221  17.88068181818182 4.39236111111111  17.642045454545453 4.635416666666667  C 17.403409090909093 4.878472222222221  17.113636363636363 5  16.772727272727273 5  L 1.227272727272727 5  C 0.8863636363636365 5  0.5965909090909092 4.878472222222221  0.35795454545454547 4.635416666666667  C 0.11931818181818181 4.39236111111111  0 4.097222222222221  0 3.75  L 0 1.25  C 0 0.9027777777777768  0.11931818181818181 0.6076388888888867  0.35795454545454547 0.36458333333333315  C 0.5965909090909092 0.12152777777777679  0.8863636363636365 0  1.227272727272727 0  L 16.772727272727273 0  C 17.113636363636363 0  17.403409090909093 0.12152777777777679  17.642045454545453 0.36458333333333315  Z " fill-rule="nonzero" fill="#2363d9" stroke="none" transform="matrix(1 0 0 1 21 11 )" />
  </g>
</svg>