<?xml version="1.0" encoding="utf-8"?>
<svg version="1.1" xmlns:xlink="http://www.w3.org/1999/xlink" width="25px" height="23px" xmlns="http://www.w3.org/2000/svg">
  <g transform="matrix(1 0 0 1 -6 -7 )">
    <path d="M 16.25434027777778 0.359375  C 16.529224537037035 0.5989583333333299  16.666666666666664 0.8826754385964882  16.666666666666664 1.2105263157894748  L 16.666666666666664 21.789473684210527  C 16.666666666666664 22.117324561403507  16.529224537037035 22.401041666666664  16.25434027777778 22.640625  C 15.97945601851852 22.880208333333336  15.653935185185187 23  15.277777777777779 23  C 14.901620370370372 23  14.576099537037038 22.880208333333336  14.301215277777779 22.640625  L 7.074652777777778 16.342105263157894  L 1.3888888888888888 16.342105263157894  C 1.0127314814814816 16.342105263157894  0.6872106481481481 16.22231359649123  0.4123263888888889 15.982730263157894  C 0.13744212962962962 15.74314692982456  0 15.459429824561404  0 15.131578947368421  L 0 7.868421052631578  C 0 7.540570175438594  0.13744212962962962 7.256853070175436  0.4123263888888889 7.017269736842105  C 0.6872106481481481 6.7776864035087705  1.0127314814814816 6.657894736842105  1.3888888888888888 6.657894736842105  L 7.074652777777778 6.657894736842105  L 14.301215277777779 0.359375  C 14.576099537037038 0.11979166666666496  14.901620370370372 0  15.277777777777779 0  C 15.653935185185187 0  15.97945601851852 0.11979166666666496  16.25434027777778 0.359375  Z M 24.07769097222222 8.814144736842106  C 24.69256365740741 9.64638157894737  25 10.541666666666664  25 11.5  C 25 12.458333333333332  24.69256365740741 13.350466008771928  24.07769097222222 14.17639802631579  C 23.462818287037038 15.002330043859647  22.649016203703706 15.591831140350877  21.63628472222222 15.944901315789473  C 21.491608796296298 16.00794956140351  21.310763888888893 16.039473684210527  21.09375 16.039473684210527  C 20.71759259259259 16.039473684210527  20.392071759259263 15.92283442982456  20.1171875 15.689555921052634  C 19.84230324074074 15.456277412280699  19.70486111111111 15.169407894736842  19.70486111111111 14.828947368421053  C 19.70486111111111 14.564144736842106  19.791666666666664 14.340323464912279  19.96527777777778 14.157483552631579  C 20.13888888888889 13.974643640350877  20.34866898148148 13.81702302631579  20.594618055555554 13.684621710526317  C 20.840567129629633 13.552220394736842  21.086516203703706 13.40720942982456  21.33246527777778 13.249588815789473  C 21.57841435185185 13.091968201754385  21.788194444444446 12.864994517543858  21.961805555555554 12.568667763157894  C 22.135416666666664 12.272341008771928  22.22222222222222 11.916118421052634  22.22222222222222 11.5  C 22.22222222222222 11.08388157894737  22.135416666666664 10.727658991228068  21.961805555555554 10.431332236842106  C 21.788194444444446 10.13500548245614  21.57841435185185 9.908031798245613  21.33246527777778 9.750411184210526  C 21.086516203703706 9.592790570175438  20.840567129629633 9.447779605263158  20.594618055555554 9.315378289473683  C 20.34866898148148 9.18297697368421  20.13888888888889 9.025356359649122  19.96527777777778 8.842516447368421  C 19.791666666666664 8.659676535087717  19.70486111111111 8.435855263157892  19.70486111111111 8.171052631578947  C 19.70486111111111 7.830592105263156  19.84230324074074 7.543722587719295  20.1171875 7.310444078947369  C 20.392071759259263 7.077165570175438  20.71759259259259 6.960526315789475  21.09375 6.960526315789475  C 21.310763888888893 6.960526315789475  21.491608796296298 6.992050438596491  21.63628472222222 7.055098684210525  C 22.649016203703706 7.395559210526317  23.462818287037038 7.981907894736842  24.07769097222222 8.814144736842106  Z " fill-rule="nonzero" fill="#437be6" stroke="none" transform="matrix(1 0 0 1 6 7 )" />
  </g>
</svg>