<?xml version="1.0" encoding="utf-8"?>
<svg version="1.1" xmlns:xlink="http://www.w3.org/1999/xlink" width="32px" height="28px" xmlns="http://www.w3.org/2000/svg">
  <g transform="matrix(1 0 0 1 -2 -4 )">
    <path d="M 14.403846153846153 2.402250351617441  C 14.647435897435896 2.651664322550397  14.76923076923077 2.947022972339426  15 3.288326300984528  L 15 24.71167369901547  C 14.76923076923077 25.05297702766057  14.647435897435896 25.3483356774496  14.403846153846153 25.59774964838256  C 14.16025641025641 25.847163619315516  13.871794871794872 25.971870604781998  13.538461538461538 25.971870604781998  C 13.205128205128206 25.971870604781998  12.916666666666668 25.847163619315516  12.673076923076923 25.59774964838256  L 6.269230769230769 19.0407876230661  L 1.2307692307692308 19.0407876230661  C 0.8974358974358976 19.0407876230661  0.608974358974359 18.916080637599624  0.36538461538461536 18.666666666666668  C 0.12179487179487179 18.41725269573371  0 18.12189404594468  0 17.780590717299578  L 0 10.219409282700422  C 0 9.87810595405532  0.12179487179487179 9.582747304266288  0.36538461538461536 9.333333333333334  C 0.608974358974359 9.083919362400373  0.8974358974358976 8.959212376933898  1.2307692307692308 8.959212376933898  L 6.269230769230769 8.959212376933898  L 12.673076923076923 2.402250351617441  C 12.916666666666668 2.152836380684482  13.205128205128206 2.028129395218004  13.538461538461538 2.028129395218004  C 13.871794871794872 2.028129395218004  14.16025641025641 2.152836380684482  14.403846153846153 2.402250351617441  Z M 21.33653846153846 11.20393811533052  C 21.88141025641026 12.070323488045007  22.153846153846153 13.002344116268164  22.153846153846153 14  C 22.153846153846153 14.997655883731833  21.88141025641026 15.92639474917956  21.33653846153846 16.78621659634318  C 20.791666666666668 17.646038443506793  20.07051282051282 18.25972808251289  19.173076923076923 18.627285513361464  C 19.0448717948718 18.69292076887013  18.884615384615387 18.72573839662447  18.692307692307693 18.72573839662447  C 18.35897435897436 18.72573839662447  18.07051282051282 18.604313173933424  17.826923076923077 18.361462728551334  C 17.583333333333336 18.11861228316924  17.46153846153846 17.819971870604782  17.46153846153846 17.465541490857948  C 17.46153846153846 17.189873417721518  17.53846153846154 16.95686826066573  17.692307692307693 16.766526019690577  C 17.846153846153847 16.57618377871542  18.032051282051285 16.412095639943743  18.25 16.27426160337553  C 18.467948717948723 16.136427566807313  18.685897435897438 15.985466479137362  18.903846153846153 15.821378340365683  C 19.121794871794872 15.657290201593998  19.307692307692307 15.421003281762774  19.46153846153846 15.112517580872009  C 19.615384615384617 14.804031879981245  19.692307692307693 14.433192686357241  19.692307692307693 14  C 19.692307692307693 13.566807313642759  19.615384615384617 13.195968120018751  19.46153846153846 12.887482419127988  C 19.307692307692307 12.578996718237223  19.121794871794872 12.342709798405998  18.903846153846153 12.178621659634318  C 18.685897435897438 12.014533520862635  18.467948717948723 11.863572433192687  18.25 11.725738396624473  C 18.032051282051285 11.587904360056257  17.846153846153847 11.423816221284575  17.692307692307693 11.233473980309423  C 17.53846153846154 11.04313173933427  17.46153846153846 10.81012658227848  17.46153846153846 10.534458509142054  C 17.46153846153846 10.180028129395216  17.583333333333336 9.881387716830753  17.826923076923077 9.638537271448666  C 18.07051282051282 9.395686826066573  18.35897435897436 9.274261603375527  18.692307692307693 9.274261603375527  C 18.884615384615387 9.274261603375527  19.0448717948718 9.307079231129864  19.173076923076923 9.372714486638536  C 20.07051282051282 9.727144866385373  20.791666666666668 10.337552742616035  21.33653846153846 11.20393811533052  Z M 25.442307692307693 8.437412095639942  C 26.532051282051285 10.13736521331458  27.076923076923077 11.991561181434598  27.076923076923077 14  C 27.076923076923077 16.008438818565402  26.532051282051285 17.86263478668542  25.442307692307693 19.562587904360054  C 24.352564102564106 21.26254102203469  22.910256410256412 22.49976558837318  21.115384615384617 23.27426160337553  C 20.948717948717952 23.3398968588842  20.78846153846154 23.372714486638536  20.634615384615383 23.372714486638536  C 20.28846153846154 23.372714486638536  19.993589743589745 23.248007501172058  19.75 22.9985935302391  C 19.50641025641026 22.749179559306143  19.384615384615387 22.453820909517113  19.384615384615383 22.11251758087201  C 19.384615384615387 21.60056258790436  19.634615384615387 21.213314580403186  20.134615384615383 20.950773558368496  C 20.852564102564106 20.57008907641819  21.33974358974359 20.28129395218003  21.596153846153847 20.08438818565401  C 22.5448717948718 19.37552742616034  23.285256410256412 18.486169714017812  23.817307692307693 17.41631504922644  C 24.349358974358974 16.346460384435066  24.615384615384617 15.207688701359587  24.615384615384617 14  C 24.615384615384617 12.79231129864041  24.349358974358974 11.653539615564931  23.817307692307693 10.583684950773558  C 23.285256410256412 9.513830285982184  22.5448717948718 8.624472573839663  21.596153846153847 7.915611814345992  C 21.33974358974359 7.718706047819973  20.852564102564106 7.429910923581808  20.134615384615383 7.049226441631504  C 19.634615384615387 6.786685419596809  19.384615384615387 6.39943741209564  19.384615384615383 5.887482419127988  C 19.384615384615387 5.546179090482886  19.50641025641026 5.250820440693856  19.75 5.0014064697609  C 19.993589743589745 4.751992498827941  20.282051282051285 4.627285513361463  20.615384615384617 4.627285513361463  C 20.782051282051285 4.627285513361463  20.948717948717952 4.660103141115795  21.115384615384617 4.7257383966244735  C 22.910256410256412 5.500234411626815  24.352564102564106 6.737458977965303  25.442307692307693 8.437412095639942  Z M 29.557692307692307 5.680731364275667  C 31.185897435897438 8.207688701359587  32 10.980778246601027  32 14  C 32 17.019221753398966  31.185897435897438 19.792311298640406  29.557692307692307 22.31926863572433  C 27.929487179487182 24.846225972808252  25.762820512820515 26.706985466479136  23.057692307692307 27.90154711673699  C 22.891025641025642 27.967182372245663  22.724358974358974 28  22.557692307692307 28  C 22.224358974358974 28  21.935897435897438 27.875293014533522  21.692307692307693 27.625879043600563  C 21.448717948717952 27.376465072667603  21.326923076923077 27.081106422878573  21.326923076923077 26.739803094233473  C 21.326923076923077 26.267229254571024  21.576923076923077 25.879981247069853  22.076923076923077 25.57805907172996  C 22.166666666666668 25.52555086732302  22.310897435897438 25.456633849038912  22.509615384615383 25.371308016877638  C 22.708333333333336 25.285982184716364  22.852564102564106 25.217065166432256  22.942307692307693 25.164556962025316  C 23.532051282051285 24.83638068448195  24.057692307692307 24.501640881387715  24.51923076923077 24.160337552742618  C 26.096153846153847 22.96577590248476  27.326923076923077 21.47585560243788  28.21153846153846 19.69057665260197  C 29.096153846153847 17.905297702766056  29.53846153846154 16.008438818565402  29.53846153846154 14  C 29.53846153846154 11.991561181434598  29.096153846153847 10.094702297233944  28.21153846153846 8.309423347398031  C 27.326923076923077 6.524144397562118  26.096153846153847 5.034224097515235  24.51923076923077 3.8396624472573837  C 24.057692307692307 3.4983591186122815  23.532051282051285 3.163619315518047  22.942307692307693 2.835443037974683  C 22.852564102564106 2.7829348335677424  22.708333333333336 2.714017815283636  22.509615384615383 2.6286919831223634  C 22.310897435897438 2.5433661509610848  22.166666666666668 2.474449132676978  22.076923076923077 2.4219409282700437  C 21.576923076923077 2.120018752930141  21.326923076923077 1.7327707454289718  21.326923076923077 1.2601969057665272  C 21.326923076923077 0.918893577121422  21.448717948717952 0.6235349273323929  21.692307692307693 0.374120956399437  C 21.935897435897438 0.12470698546647796  22.224358974358974 0  22.557692307692307 0  C 22.724358974358974 0  22.891025641025642 0.03281762775433483  23.057692307692307 0.09845288326301072  C 25.762820512820515 1.293014533520859  27.929487179487182 3.1537740271917456  29.557692307692307 5.680731364275667  Z " fill-rule="nonzero" fill="#437be6" stroke="none" transform="matrix(1 0 0 1 2 4 )" />
  </g>
</svg>