<?xml version="1.0" encoding="utf-8"?>
<svg version="1.1" xmlns:xlink="http://www.w3.org/1999/xlink" width="15px" height="22px" xmlns="http://www.w3.org/2000/svg">
  <g transform="matrix(1 0 0 1 -3 -7 )">
    <path d="M 14.62890625 0.34375  C 14.876302083333334 0.5729166666666634  15 0.8442982456140322  15 1.1578947368421064  L 15 20.842105263157897  C 15 21.155701754385962  14.876302083333334 21.427083333333332  14.62890625 21.65625  C 14.381510416666668 21.885416666666668  14.088541666666668 22  13.75 22  C 13.411458333333336 22  13.118489583333336 21.885416666666668  12.87109375 21.65625  L 6.3671875 15.631578947368421  L 1.25 15.631578947368421  C 0.9114583333333335 15.631578947368421  0.6184895833333334 15.516995614035089  0.37109375 15.287828947368421  C 0.12369791666666667 15.058662280701753  0 14.787280701754387  0 14.473684210526317  L 0 7.526315789473683  C 0 7.212719298245611  0.12369791666666667 6.941337719298243  0.37109375 6.712171052631579  C 0.6184895833333334 6.483004385964911  0.9114583333333335 6.368421052631579  1.25 6.368421052631579  L 6.3671875 6.368421052631579  L 12.87109375 0.34375  C 13.118489583333336 0.1145833333333317  13.411458333333336 0  13.75 0  C 14.088541666666668 0  14.381510416666668 0.1145833333333317  14.62890625 0.34375  Z " fill-rule="nonzero" fill="#437be6" stroke="none" transform="matrix(1 0 0 1 3 7 )" />
  </g>
</svg>