<?xml version="1.0" encoding="utf-8"?>
<svg version="1.1" xmlns:xlink="http://www.w3.org/1999/xlink" width="13px" height="13px" xmlns="http://www.w3.org/2000/svg">
  <g transform="matrix(1 0 0 1 -20 -12 )">
    <path d="M 10.740234375 8.288449059052564  C 10.982855902777779 7.717607614103395  11.104166666666666 7.120051914341336  11.104166666666666 6.495781959766385  C 11.104166666666666 5.590309322950464  10.858723958333334 4.760761410339606  10.367838541666666 4.007138221933809  L 3.986328125 10.359506813757301  C 4.759331597222222 10.860047588146225  5.597222222222222 11.110317975340688  6.5 11.110317975340688  C 7.126302083333334 11.110317975340688  7.722981770833334 10.987994808565867  8.2900390625 10.743348475016223  C 8.857096354166666 10.49870214146658  9.346571180555557 10.171101016655852  9.758463541666666 9.760545100584038  C 10.170355902777779 9.349989184512221  10.497612847222223 8.859290504001729  10.740234375 8.288449059052564  Z M 1.8958333333333335 6.495781959766385  C 1.8958333333333335 7.406878650227124  2.1469184027777777 8.247674670127621  2.6490885416666665 9.018170019467878  L 9.0390625 2.6573653471771586  C 8.277343750000002 2.1455764654985936  7.430989583333334 1.8896820246593116  6.5 1.8896820246593116  C 5.664930555555555 1.8896820246593116  4.894748263888889 2.0949599826952188  4.189453125 2.505515898767034  C 3.484157986111111 2.916071814838847  2.925564236111111 3.475665152498377  2.513671875 4.18429591174562  C 2.1017795138888893 4.892926670992862  1.8958333333333335 5.663422020333117  1.8958333333333335 6.495781959766385  Z M 12.483723958333334 3.969175859831279  C 12.82790798611111 4.77060350421804  13 5.612805537529742  13 6.495781959766385  C 13 7.378758382003028  12.82790798611111 8.222366428725936  12.483723958333334 9.026606099935108  C 12.139539930555557 9.830845771144277  11.678276909722223 10.522604369457062  11.099934895833334 11.101881894873458  C 10.521592881944445 11.681159420289855  9.830403645833334 12.142331819165044  9.0263671875 12.485399091499026  C 8.222330729166668 12.82846636383301  7.380208333333334 13  6.5 13  C 5.619791666666667 13  4.777669270833333 12.82846636383301  3.9736328125 12.485399091499026  C 3.1695963541666665 12.142331819165044  2.478407118055556 11.681159420289855  1.9000651041666665 11.101881894873458  C 1.321723090277778 10.522604369457062  0.8604600694444445 9.830845771144277  0.5162760416666667 9.026606099935108  C 0.17209201388888892 8.222366428725936  0 7.378758382003028  0 6.495781959766385  C 0 5.612805537529742  0.17209201388888892 4.77060350421804  0.5162760416666667 3.969175859831279  C 0.8604600694444445 3.167748215444516  1.321723090277778 2.477395630542937  1.9000651041666665 1.8981181051265417  C 2.478407118055556 1.3188405797101437  3.1695963541666665 0.8576681808349539  3.9736328125 0.5146009085009741  C 4.777669270833333 0.1715336361669899  5.619791666666667 0  6.5 0  C 7.380208333333334 0  8.222330729166668 0.1715336361669899  9.0263671875 0.5146009085009741  C 9.830403645833334 0.8576681808349539  10.521592881944445 1.3188405797101437  11.099934895833334 1.8981181051265417  C 11.678276909722223 2.477395630542937  12.139539930555557 3.167748215444516  12.483723958333334 3.969175859831279  Z " fill-rule="nonzero" fill="#437be6" stroke="none" transform="matrix(1 0 0 1 20 12 )" />
  </g>
</svg>