<?xml version="1.0" encoding="utf-8"?>
<svg version="1.1" xmlns:xlink="http://www.w3.org/1999/xlink" width="31px" height="45px" xmlns="http://www.w3.org/2000/svg">
  <g transform="matrix(1 0 0 1 -39 -623 )">
    <path d="M 17.188350983358546 33.900669642857146  L 17.21180030257186 26.442522321428573  L 20.682299546142207 30.159040178571427  L 17.188350983358546 33.900669642857146  Z M 17.21180030257186 18.55747767857143  L 17.188350983358546 11.099330357142856  L 20.682299546142207 14.84095982142857  L 17.21180030257186 18.55747767857143  Z M 14.139939485627837 26.49274553571429  L 14.139939485627837 41.8359375  L 25.020423600605145 30.18415178571429  L 17.844931921331316 22.5  L 25.020423600605145 14.815848214285714  L 14.139939485627837 3.1640625  L 14.139939485627837 18.50725446428571  L 8.16036308623298 12.103794642857144  L 5.9795763993948565 14.439174107142856  L 13.483358547655067 22.5  L 5.9795763993948565 30.560825892857142  L 8.16036308623298 32.896205357142854  L 14.139939485627837 26.49274553571429  Z M 30.24962178517398 13.321707589285714  C 30.74987392839133 15.94168526785714  31 19.00111607142857  31 22.5  C 31 25.998883928571427  30.74987392839133 29.058314732142854  30.24962178517398 31.67829241071429  C 29.749369641956633 34.29827008928571  29.065431164901664 36.449497767857146  28.197806354009078 38.13197544642858  C 27.33018154311649 39.814453125  26.23197175995966 41.17466517857143  24.903177004538577 42.212611607142854  C 23.5743822491175 43.25055803571429  22.155698436712054 43.974609375  20.647125567322238 44.384765625  C 19.138552697932425 44.794921875  17.42284417549168 45  15.5 45  C 13.57715582450832 45  11.861447302067575 44.794921875  10.35287443267776 44.384765625  C 8.844301563287948 43.974609375  7.425617750882502 43.25055803571429  6.096822995461422 42.212611607142854  C 4.768028240040344 41.17466517857143  3.66981845688351 39.814453125  2.802193645990923 38.13197544642858  C 1.9345688350983359 36.449497767857146  1.2506303580433689 34.29827008928571  0.7503782148260212 31.67829241071429  C 0.25012607160867384 29.058314732142854  0 25.998883928571427  0 22.5  C 0 19.00111607142857  0.25012607160867384 15.94168526785714  0.7503782148260212 13.321707589285714  C 1.2506303580433689 10.701729910714281  1.9345688350983359 8.550502232142856  2.802193645990923 6.868024553571431  C 3.66981845688351 5.185546875  4.768028240040344 3.825334821428571  6.096822995461422 2.7873883928571437  C 7.425617750882502 1.7494419642857113  8.844301563287948 1.0253906249999967  10.35287443267776 0.615234375  C 11.861447302067575 0.20507812500000333  13.57715582450832 0  15.5 0  C 17.42284417549168 0  19.138552697932425 0.20507812500000333  20.647125567322238 0.615234375  C 22.155698436712054 1.0253906249999967  23.5743822491175 1.7494419642857113  24.903177004538577 2.7873883928571437  C 26.23197175995966 3.825334821428571  27.33018154311649 5.185546875  28.197806354009078 6.868024553571431  C 29.065431164901664 8.550502232142856  29.749369641956633 10.701729910714281  30.24962178517398 13.321707589285714  Z " fill-rule="nonzero" fill="#2363d9" stroke="none" transform="matrix(1 0 0 1 39 623 )" />
  </g>
</svg>