<?xml version="1.0" encoding="utf-8"?>
<svg version="1.1" xmlns:xlink="http://www.w3.org/1999/xlink" width="57px" height="50px" xmlns="http://www.w3.org/2000/svg">
  <g transform="matrix(1 0 0 1 -67 -57 )">
    <path d="M 56.939318665720364 1.899857954545453  C 57.03371185237758 2.38517992424242  56.946061036195886 2.85274621212121  56.6763662171753 3.3025568181818175  L 30.78566359119943 48.75710227272727  C 30.327182398864444 49.58570075757576  29.558552164655783 50  28.479772888573457 50  C 28.344925479063168 50  28.142654364797732 49.97632575757576  27.872959545777146 49.92897727272727  C 27.279630943931867 49.81060606060606  26.800922640170334 49.544270833333336  26.43683463449255 49.129971590909086  C 26.072746628814762 48.715672348484844  25.89070262597587 48.24810606060606  26 47.72727272727273  L 26 27  L 2.589070262597587 27  C 1.9957416607523066 27.27272727272727  1.4630943931866573 27.112926136363637  0.9911284599006388 26.793323863636363  C 0.5191625266146203 26.473721590909093  0.2157558552164656 26.053503787878785  0.0809084457061746 25.53267045454546  C -0.0539389638041164 25.01183712121212  0 24.514678030303028  0.24272533711852376 24.041193181818183  C 0.48545067423704763 23.567708333333332  0.8765081618168914 23.212594696969695  1.4158977998580555 22.97585227272727  L 53.1973030518098 0.24857954545454697  C 53.547906316536555 0.08285984848484529  53.9389638041164 0  54.37047551454933 0  C 55.0986515259049 0  55.705464868701206 0.22490530303029832  56.19091554293826 0.6747159090909116  C 56.59545777146913 1.0061553030302983  56.84492547906317 1.4145359848484806  56.939318665720364 1.899857954545453  Z " fill-rule="nonzero" fill="#2363d9" stroke="none" transform="matrix(1 0 0 1 67 57 )" />
  </g>
</svg>