<?xml version="1.0" encoding="utf-8"?>
<svg version="1.1" xmlns:xlink="http://www.w3.org/1999/xlink" width="59px" height="51px" xmlns="http://www.w3.org/2000/svg">
  <g transform="matrix(1 0 0 1 -299 -57 )">
    <path d="M 56.62439903846153 16.915482954545453  C 58.20813301282051 20.296164772727273  59 23.809659090909086  59 27.455965909090907  C 59 31.464488636363637  58.29086538461539 35.25568181818181  56.87259615384615 38.82954545454545  L 56.16346153846153 40.60440340909091  L 49.60396634615385 41.79971590909091  C 49.0839342948718 43.80397727272727  48.01432291666667 45.45205965909091  46.39513221153847 46.74396306818181  C 44.77594150641026 48.03586647727273  42.92628205128206 48.68181818181819  40.84615384615385 48.68181818181819  L 40.84615384615385 49.84090909090909  C 40.84615384615385 50.17897727272727  40.73978365384615 50.45667613636364  40.52704326923077 50.67400568181819  C 40.31430288461539 50.89133522727273  40.042467948717956 51  39.71153846153847 51  L 37.44230769230769 51  C 37.11137820512821 51  36.83954326923077 50.89133522727273  36.62680288461539 50.67400568181819  C 36.4140625 50.45667613636364  36.30769230769231 50.17897727272727  36 49.84090909090909  L 36 28.977272727272723  C 36.30769230769231 28.639204545454543  36.4140625 28.361505681818183  36.62680288461539 28.144176136363633  C 36.83954326923077 27.926846590909093  37.11137820512821 27.818181818181817  37.44230769230769 27.818181818181817  L 39.71153846153847 27.818181818181817  C 40.042467948717956 27.818181818181817  40.31430288461539 27.926846590909093  40.52704326923077 28.144176136363633  C 40.73978365384615 28.361505681818183  40.84615384615385 28.639204545454543  40.84615384615385 28.977272727272723  L 40.84615384615385 30.136363636363633  C 42.5244391025641 30.136363636363633  44.06089743589744 30.564985795454543  45.45552884615385 31.422230113636367  C 46.85016025641026 32.27947443181817  47.949318910256416 33.43252840909091  48.75300480769231 34.88139204545455  L 51.1640625 34.44673295454545  C 51.8495592948718 32.15269886363636  52.19230769230769 29.82244318181818  52.19230769230769 27.455965909090907  C 52.19230769230769 23.882102272727273  51.15224358974359 20.513494318181817  49.07211538461539 17.350142045454547  C 46.99198717948718 14.186789772727273  44.19681490384615 11.66335227272727  40.68659855769231 9.779829545454547  C 37.17638221153847 7.896306818181817  33.44751602564103 6.954545454545454  29.5 6.954545454545454  C 25.552483974358978 6.954545454545454  21.82361778846154 7.896306818181817  18.313401442307693 9.779829545454547  C 14.803185096153845 11.66335227272727  12.008012820512821 14.186789772727273  9.927884615384617 17.350142045454547  C 7.847756410256411 20.513494318181817  6.807692307692308 23.882102272727273  6.807692307692308 27.455965909090907  C 6.807692307692308 29.82244318181818  7.150440705128205 32.15269886363636  7.8359375 34.44673295454545  L 10.246995192307692 34.88139204545455  C 11.05068108974359 33.43252840909091  12.149839743589745 32.27947443181817  13.544471153846153 31.422230113636367  C 14.939102564102567 30.564985795454543  16.4755608974359 30.136363636363633  18.153846153846153 30.136363636363633  L 18.153846153846153 28.977272727272723  C 18.153846153846153 28.639204545454543  18.260216346153847 28.361505681818183  18.472956730769234 28.144176136363633  C 18.685697115384617 27.926846590909093  18.95753205128205 27.818181818181817  19.28846153846154 27.818181818181817  L 21.557692307692307 27.818181818181817  C 21.888621794871796 27.818181818181817  22.160456730769234 27.926846590909093  22.373197115384617 28.144176136363633  C 22.5859375 28.361505681818183  22.692307692307693 28.639204545454543  23 28.977272727272723  L 23 49.84090909090909  C 22.692307692307693 50.17897727272727  22.5859375 50.45667613636364  22.373197115384617 50.67400568181819  C 22.160456730769234 50.89133522727273  21.888621794871796 51  21.557692307692307 51  L 19.28846153846154 51  C 18.95753205128205 51  18.685697115384617 50.89133522727273  18.472956730769234 50.67400568181819  C 18.260216346153847 50.45667613636364  18.153846153846153 50.17897727272727  18.153846153846153 49.84090909090909  L 18.153846153846153 48.68181818181819  C 16.07371794871795 48.68181818181819  14.224058493589745 48.03586647727273  12.604867788461538 46.74396306818181  C 10.985677083333334 45.45205965909091  9.916065705128206 43.80397727272727  9.396033653846153 41.79971590909091  L 2.8365384615384617 40.60440340909091  L 2.127403846153846 38.82954545454545  C 0.7091346153846154 35.25568181818181  0 31.464488636363637  0 27.455965909090907  C 0 23.809659090909086  0.7918669871794871 20.296164772727273  2.3756009615384617 16.915482954545453  C 3.9593349358974357 13.53480113636363  6.074919871794872 10.60688920454545  8.72235576923077 8.131747159090908  C 11.369791666666668 5.65660511363636  14.513621794871796 3.682528409090906  18.153846153846153 2.209517045454546  C 21.794070512820515 0.7365056818181801  25.576121794871796 0  29.5 0  C 33.42387820512821 0  37.20592948717949 0.7365056818181801  40.84615384615385 2.209517045454546  C 44.48637820512821 3.682528409090906  47.630208333333336 5.65660511363636  50.27764423076923 8.131747159090908  C 52.92508012820513 10.60688920454545  55.04066506410257 13.53480113636363  56.62439903846153 16.915482954545453  Z " fill-rule="nonzero" fill="#2363d9" stroke="none" transform="matrix(1 0 0 1 299 57 )" />
  </g>
</svg>