<?xml version="1.0" encoding="utf-8"?>
<svg version="1.1" xmlns:xlink="http://www.w3.org/1999/xlink" width="47px" height="53px" xmlns="http://www.w3.org/2000/svg">
  <g transform="matrix(1 0 0 1 -299 -54 )">
    <path d="M 3.6153846153846154 40.69642857142857  L 3.6153846153846154 49.214285714285715  L 11.75 49.214285714285715  L 11.75 40.69642857142857  L 3.6153846153846154 40.69642857142857  Z M 13.557692307692307 40.69642857142857  L 13.557692307692307 49.214285714285715  L 22.596153846153847 49.214285714285715  L 22.596153846153847 40.69642857142857  L 13.557692307692307 40.69642857142857  Z M 3.6153846153846154 29.339285714285715  L 3.6153846153846154 38.80357142857143  L 11.75 38.80357142857143  L 11.75 29.339285714285715  L 3.6153846153846154 29.339285714285715  Z M 13.557692307692307 29.339285714285715  L 13.557692307692307 38.80357142857143  L 22.596153846153847 38.80357142857143  L 22.596153846153847 29.339285714285715  L 13.557692307692307 29.339285714285715  Z M 3.6153846153846154 18.928571428571427  L 3.6153846153846154 27.44642857142857  L 11.75 27.44642857142857  L 11.75 18.928571428571427  L 3.6153846153846154 18.928571428571427  Z M 24.403846153846157 40.69642857142857  L 24.403846153846157 49.214285714285715  L 33.44230769230769 49.214285714285715  L 33.44230769230769 40.69642857142857  L 24.403846153846157 40.69642857142857  Z M 13.557692307692307 18.928571428571427  L 13.557692307692307 27.44642857142857  L 22.596153846153847 27.44642857142857  L 22.596153846153847 18.928571428571427  L 13.557692307692307 18.928571428571427  Z M 35.25 40.69642857142857  L 35.25 49.214285714285715  L 43.38461538461539 49.214285714285715  L 43.38461538461539 40.69642857142857  L 35.25 40.69642857142857  Z M 24.403846153846157 29.339285714285715  L 24.403846153846157 38.80357142857143  L 33.44230769230769 38.80357142857143  L 33.44230769230769 29.339285714285715  L 24.403846153846157 29.339285714285715  Z M 14.193209134615385 13.915457589285715  C 14.372095352564102 13.728143601190473  14.461538461538462 13.5063244047619  14.461538461538462 13.25  L 14.461538461538462 4.732142857142858  C 14.461538461538462 4.4758184523809526  14.372095352564102 4.253999255952379  14.193209134615385 4.066685267857142  C 14.014322916666668 3.8793712797618993  13.802483974358974 3.785714285714284  13.557692307692307 3.785714285714284  L 11.75 3.785714285714284  C 11.505208333333334 3.785714285714284  11.293369391025642 3.8793712797618993  11.114483173076923 4.066685267857142  C 10.935596955128203 4.253999255952379  10.846153846153847 4.4758184523809526  10.846153846153847 4.732142857142858  L 10.846153846153847 13.25  C 10.846153846153847 13.5063244047619  10.935596955128203 13.728143601190473  11.114483173076923 13.915457589285715  C 11.293369391025642 14.102771577380953  11.505208333333334 14.196428571428575  11.75 14.196428571428575  L 13.557692307692307 14.196428571428575  C 13.802483974358974 14.196428571428575  14.014322916666668 14.102771577380953  14.193209134615385 13.915457589285715  Z M 35.25 29.339285714285715  L 35.25 38.80357142857143  L 43.38461538461539 38.80357142857143  L 43.38461538461539 29.339285714285715  L 35.25 29.339285714285715  Z M 24.403846153846157 18.928571428571427  L 24.403846153846157 27.44642857142857  L 33.44230769230769 27.44642857142857  L 33.44230769230769 18.928571428571427  L 24.403846153846157 18.928571428571427  Z M 35.25 18.928571428571427  L 35.25 27.44642857142857  L 43.38461538461539 27.44642857142857  L 43.38461538461539 18.928571428571427  L 35.25 18.928571428571427  Z M 35.88551682692307 13.915457589285715  C 36.064403044871796 13.728143601190473  36.15384615384615 13.5063244047619  36.15384615384615 13.25  L 36.15384615384615 4.732142857142858  C 36.15384615384615 4.4758184523809526  36.064403044871796 4.253999255952379  35.88551682692307 4.066685267857142  C 35.706630608974365 3.8793712797618993  35.49479166666667 3.785714285714284  35.25 3.785714285714284  L 33.44230769230769 3.785714285714284  C 33.19751602564103 3.785714285714284  32.985677083333336 3.8793712797618993  32.80679086538461 4.066685267857142  C 32.6279046474359 4.253999255952379  32.53846153846154 4.4758184523809526  32.53846153846154 4.732142857142858  L 32.53846153846154 13.25  C 32.53846153846154 13.5063244047619  32.6279046474359 13.728143601190473  32.80679086538461 13.915457589285715  C 32.985677083333336 14.102771577380953  33.19751602564103 14.196428571428575  33.44230769230769 14.196428571428575  L 35.25 14.196428571428575  C 35.49479166666667 14.196428571428575  35.706630608974365 14.102771577380953  35.88551682692307 13.915457589285715  Z M 45.92668269230769 8.6953125  C 46.64222756410257 9.444568452380953  47 10.331845238095237  47 11.357142857142858  L 47 49.214285714285715  C 47 50.239583333333336  46.64222756410257 51.12686011904762  45.92668269230769 51.87611607142858  C 45.211137820512825 52.62537202380952  44.36378205128206 53  43.38461538461539 53  L 3.6153846153846154 53  C 2.6362179487179493 53  1.7888621794871797 52.62537202380952  1.0733173076923077 51.87611607142858  C 0.3577724358974359 51.12686011904762  0 50.239583333333336  0 49.214285714285715  L 0 11.357142857142858  C 0 10.331845238095237  0.3577724358974359 9.444568452380953  1.0733173076923077 8.6953125  C 1.7888621794871797 7.946056547619041  2.6362179487179493 7.571428571428574  3.6153846153846154 7.571428571428574  L 7.230769230769231 7.571428571428574  L 7.230769230769231 4.732142857142858  C 7.230769230769231 3.430803571428574  7.673277243589744 2.3167782738095206  8.558293269230768 1.390066964285716  C 9.443309294871797 0.4633556547619053  10.507211538461538 0  11.75 0  L 13.557692307692307 0  C 14.800480769230768 0  15.864383012820515 0.4633556547619053  16.749399038461537 1.390066964285716  C 17.634415064102566 2.3167782738095206  18.076923076923077 3.430803571428574  18.076923076923077 4.732142857142858  L 18.076923076923077 8  L 28.923076923076923 8  L 28.923076923076923 4.732142857142858  C 28.923076923076923 3.430803571428574  29.365584935897438 2.3167782738095206  30.250600961538463 1.390066964285716  C 31.135616987179493 0.4633556547619053  32.19951923076923 0  33.44230769230769 0  L 35.25 0  C 36.49278846153846 0  37.556690705128204 0.4633556547619053  38.44170673076923 1.390066964285716  C 39.32672275641026 2.3167782738095206  39.76923076923077 3.430803571428574  39.76923076923077 4.732142857142858  L 39.76923076923077 7.571428571428574  L 43.38461538461539 7.571428571428574  C 44.36378205128206 7.571428571428574  45.211137820512825 7.946056547619041  45.92668269230769 8.6953125  Z " fill-rule="nonzero" fill="#2363d9" stroke="none" transform="matrix(1 0 0 1 299 54 )" />
  </g>
</svg>