<?xml version="1.0" encoding="utf-8"?>
<svg version="1.1" xmlns:xlink="http://www.w3.org/1999/xlink" width="48px" height="50px" xmlns="http://www.w3.org/2000/svg">
  <g transform="matrix(1 0 0 1 -533 -57 )">
    <path d="M 2.65625 0  L 45.34375 0  C 46.07291666666667 0  46.69791666666667 0.2712673611111105  47.21875 0.8138020833333315  C 47.73958333333333 1.3563368055555525  48 2.007378472222215  48 2.7669270833333313  L 48 47.23307291666667  C 48 47.99262152777777  47.73958333333333 48.64366319444444  47.21875 49.18619791666667  C 46.69791666666667 49.72873263888889  46.07291666666667 50  45.34375 50  L 33 50  L 33 30.631510416666664  L 39.34375 30.631510416666664  L 40.28125 23.079427083333332  L 33.125 23.079427083333332  L 33.125 18.26171875  C 33.125 17.046440972222214  33.36979166666667 16.134982638888886  33.859375 15.52734375  C 34.348958333333336 14.91970486111111  35.302083333333336 14.615885416666668  36.71875 14.615885416666668  L 40.53125 14.583333333333332  L 40.53125 7.845052083333331  C 39.21875 7.649739583333331  37.364583333333336 7.552083333333331  34.96875 7.552083333333331  C 32.13541666666667 7.552083333333331  29.86979166666667 8.420138888888884  28.171875 10.15625  C 26.473958333333336 11.89236111111111  25.625 14.344618055555552  25.625 17.513020833333332  L 25.625 23.079427083333332  L 19.375 23.079427083333332  L 19.375 30.631510416666664  L 25 30.631510416666664  L 25 50  L 2.65625 50  C 1.9270833333333335 50  1.3020833333333335 49.72873263888889  0.78125 49.18619791666667  C 0.26041666666666663 48.64366319444444  0 47.99262152777777  0 47.23307291666667  L 0 2.7669270833333313  C 0 2.007378472222215  0.26041666666666663 1.3563368055555525  0.78125 0.8138020833333315  C 1.3020833333333335 0.2712673611111105  1.9270833333333335 0  2.65625 0  Z " fill-rule="nonzero" fill="#2363d9" stroke="none" transform="matrix(1 0 0 1 533 57 )" />
  </g>
</svg>