<?xml version="1.0" encoding="utf-8"?>
<svg version="1.1" xmlns:xlink="http://www.w3.org/1999/xlink" width="54px" height="55px" xmlns="http://www.w3.org/2000/svg">
  <defs>
    <filter x="137px" y="6px" width="54px" height="55px" filterUnits="userSpaceOnUse" id="filter117">
      <feOffset dx="0" dy="0" in="SourceAlpha" result="shadowOffsetInner" />
      <feGaussianBlur stdDeviation="6.5" in="shadowOffsetInner" result="shadowGaussian" />
      <feComposite in2="shadowGaussian" operator="atop" in="SourceAlpha" result="shadowComposite" />
      <feColorMatrix type="matrix" values="0 0 0 0 0  0 0 0 0 0  0 0 0 0 0  0 0 0 0.9921568627450981 0  " in="shadowComposite" />
    </filter>
    <g id="widget118">
      <path d="M 20.64453125 15.3474025974026  L 1.23046875 28.717532467532468  C 0.8841145833333334 28.956060606060607  0.5924479166666667 29.03766233766234  0.35546875000000006 28.962337662337664  C 0.11848958333333337 28.887012987012987  0 28.686147186147185  0 28.35974025974026  L 0 0.6402597402597389  C 0 0.3138528138528113  0.11848958333333337 0.11298701298701141  0.35546875000000006 0.037662337662336065  C 0.5924479166666667 -0.037662337662339285  0.8841145833333334 0.04393939393939261  1.23046875 0.28246753246753176  L 20.64453125 13.6525974025974  C 20.80859375 13.765584415584415  20.927083333333336 13.884848484848485  21 14.010389610389613  L 21 1.2428571428571416  C 21 0.9164502164502141  21.173177083333332 0.6339826839826823  21.51953125 0.3954545454545464  C 21.865885416666668 0.15692640692640403  22.276041666666668 0.037662337662336065  22.75 0.037662337662336065  L 26.25 0.037662337662336065  C 26.723958333333336 0.037662337662336065  27.134114583333336 0.15692640692640403  27.48046875 0.3954545454545464  C 27.826822916666668 0.6339826839826823  28 0.9164502164502141  28 1.2428571428571416  L 28 27.75714285714286  C 28 28.08354978354978  27.826822916666668 28.366017316017313  27.48046875 28.604545454545452  C 27.134114583333336 28.843073593073598  26.723958333333336 28.962337662337664  26.25 28.962337662337664  L 22.75 28.962337662337664  C 22.276041666666668 28.962337662337664  21.865885416666668 28.843073593073598  21.51953125 28.604545454545452  C 21.173177083333332 28.366017316017313  21 28.08354978354978  21 27.75714285714286  L 21 14.989610389610391  C 20.927083333333336 15.115151515151515  20.80859375 15.234415584415585  20.64453125 15.3474025974026  Z " fill-rule="nonzero" fill="#ffffff" stroke="none" fill-opacity="0.9921568627450981" transform="matrix(1 0 0 1 150 19 )" />
    </g>
  </defs>
  <g transform="matrix(1 0 0 1 -137 -6 )">
    <use xlink:href="#widget118" filter="url(#filter117)" />
    <use xlink:href="#widget118" />
  </g>
</svg>