<?xml version="1.0" encoding="utf-8"?>
<svg version="1.1" xmlns:xlink="http://www.w3.org/1999/xlink" width="50px" height="50px" xmlns="http://www.w3.org/2000/svg">
  <g transform="matrix(1 0 0 1 -387 -150 )">
    <path d="M 36.78385416666667 33.854166666666664  C 37.19618055555556 33.44184027777778  37.40234375 32.942708333333336  37.40234375 32.356770833333336  C 37.40234375 31.79253472222222  37.19618055555556 31.30425347222222  36.78385416666667 30.891927083333336  L 30.891927083333332 25  L 36.78385416666667 19.108072916666668  C 37.19618055555556 18.695746527777775  37.40234375 18.207465277777775  37.40234375 17.643229166666668  C 37.40234375 17.057291666666668  37.19618055555556 16.558159722222214  36.78385416666667 16.145833333333332  L 33.85416666666667 13.216145833333332  C 33.441840277777786 12.803819444444443  32.94270833333333 12.59765625  32.35677083333333 12.59765625  C 31.792534722222225 12.59765625  31.304253472222225 12.803819444444443  30.891927083333332 13.216145833333332  L 25 19.108072916666668  L 19.108072916666664 13.216145833333332  C 18.69574652777778 12.803819444444443  18.20746527777778 12.59765625  17.643229166666664 12.59765625  C 17.057291666666664 12.59765625  16.558159722222225 12.803819444444443  16.145833333333336 13.216145833333332  L 13.216145833333334 16.145833333333332  C 12.803819444444445 16.558159722222214  12.597656250000004 17.057291666666668  12.59765625 17.643229166666668  C 12.597656250000004 18.207465277777775  12.803819444444445 18.695746527777775  13.216145833333334 19.108072916666668  L 19.108072916666664 25  L 13.216145833333334 30.891927083333336  C 12.803819444444445 31.30425347222222  12.597656250000004 31.79253472222222  12.59765625 32.356770833333336  C 12.597656250000004 32.942708333333336  12.803819444444445 33.44184027777778  13.216145833333334 33.854166666666664  L 16.145833333333336 36.783854166666664  C 16.558159722222225 37.19618055555555  17.057291666666664 37.40234375  17.643229166666664 37.40234375  C 18.20746527777778 37.40234375  18.69574652777778 37.19618055555555  19.108072916666664 36.783854166666664  L 25 30.891927083333336  L 30.891927083333332 36.783854166666664  C 31.304253472222225 37.19618055555555  31.792534722222225 37.40234375  32.35677083333333 37.40234375  C 32.94270833333333 37.40234375  33.441840277777786 37.19618055555555  33.85416666666667 36.783854166666664  L 36.78385416666667 33.854166666666664  Z M 46.64713541666667 12.451171875  C 48.882378472222214 16.281467013888886  50 20.464409722222214  50 25  C 50 29.53559027777778  48.882378472222214 33.71853298611111  46.64713541666667 37.548828125  C 44.411892361111114 41.37912326388889  41.37912326388889 44.41189236111111  37.548828125 46.64713541666667  C 33.718532986111114 48.88237847222223  29.53559027777778 50  25 50  C 20.464409722222225 50  16.28146701388889 48.88237847222223  12.451171875 46.64713541666667  C 8.620876736111112 44.41189236111111  5.588107638888889 41.37912326388889  3.3528645833333335 37.548828125  C 1.1176215277777777 33.71853298611111  0 29.53559027777778  0 25  C 0 20.464409722222214  1.1176215277777777 16.281467013888886  3.3528645833333335 12.451171875  C 5.588107638888889 8.62087673611111  8.620876736111112 5.588107638888884  12.451171875 3.3528645833333313  C 16.28146701388889 1.1176215277777735  20.464409722222225 0  25 0  C 29.53559027777778 0  33.718532986111114 1.1176215277777735  37.548828125 3.3528645833333313  C 41.37912326388889 5.588107638888884  44.411892361111114 8.62087673611111  46.64713541666667 12.451171875  Z " fill-rule="nonzero" fill="#000000" stroke="none" transform="matrix(1 0 0 1 387 150 )" />
  </g>
</svg>