<?xml version="1.0" encoding="utf-8"?>
<svg version="1.1" xmlns:xlink="http://www.w3.org/1999/xlink" width="51px" height="51px" xmlns="http://www.w3.org/2000/svg">
  <g transform="matrix(1 0 0 1 -40 -717 )">
    <path d="M 65.5 718  C 79.22 718  90 728.78  90 742.5  C 90 756.22  79.22 767  65.5 767  C 51.78 767  41 756.22  41 742.5  C 41 728.78  51.78 718  65.5 718  Z " fill-rule="nonzero" fill="#ffffff" stroke="none" fill-opacity="0" />
    <path d="M 65.5 718  C 79.22 718  90 728.78  90 742.5  C 90 756.22  79.22 767  65.5 767  C 51.78 767  41 756.22  41 742.5  C 41 728.78  51.78 718  65.5 718  Z " stroke-width="2" stroke="#fffbfb" fill="none" />
  </g>
</svg>