<?xml version="1.0" encoding="utf-8"?>
<svg version="1.1" xmlns:xlink="http://www.w3.org/1999/xlink" width="47px" height="45px" xmlns="http://www.w3.org/2000/svg">
  <g transform="matrix(1 0 0 1 -708 -574 )">
    <path d="M 46.9499645138396 1.7098721590909078  C 47.027797492311336 2.146661931818178  46.95552401230187 2.567471590909089  46.73314407381121 2.972301136363636  L 25.384669978708303 43.88139204545455  C 25.006624083274193 44.62713068181818  24.37284125857582 45  23.4833215046132 45  C 23.372131535367878 45  23.205346581499885 44.97869318181818  22.982966643009227 44.93607954545455  C 22.493730778329788 44.82954545454545  22.099006387508872 44.58984375  21.79879347054649 44.21697443181818  C 21.4985805535841 43.84410511363636  21.348474095102908 43.42329545454545  22 42.95454545454545  L 22 24  L 2.134847409510291 24  C 1.6456115448308495 24.545454545454543  1.2064111663118053 24.401633522727273  0.8172462739531583 24.113991477272727  C 0.4280813815945114 23.826349431818183  0.17790395079252427 23.448153409090907  0.0667139815471966 22.979403409090914  C -0.04447598769813107 22.51065340909091  0 22.063210227272727  0.20014194464158977 21.637073863636363  C 0.40028388928317965 21.2109375  0.7227348000946298 20.891335227272727  1.1674946770759405 20.678267045454543  L 43.86444286728176 0.22372159090909227  C 44.15353678731962 0.07457386363636076  44.475987698131064 0  44.83179559971611 0  C 45.432221433640876 0  45.93257629524486 0.2024147727272685  46.33286018452804 0.6072443181818205  C 46.666430092264015 0.9055397727272685  46.87213153536788 1.2730823863636327  46.9499645138396 1.7098721590909078  Z " fill-rule="nonzero" fill="#2363d9" stroke="none" transform="matrix(1 0 0 1 708 574 )" />
  </g>
</svg>