<?xml version="1.0" encoding="utf-8"?>
<svg version="1.1" xmlns:xlink="http://www.w3.org/1999/xlink" width="25px" height="37px" xmlns="http://www.w3.org/2000/svg">
  <defs>
    <filter x="510px" y="724px" width="25px" height="37px" filterUnits="userSpaceOnUse" id="filter138">
      <feOffset dx="0" dy="0" in="SourceAlpha" result="shadowOffsetInner" />
      <feGaussianBlur stdDeviation="2" in="shadowOffsetInner" result="shadowGaussian" />
      <feComposite in2="shadowGaussian" operator="atop" in="SourceAlpha" result="shadowComposite" />
      <feColorMatrix type="matrix" values="0 0 0 0 0.9686274509803922  0 0 0 0 0.9686274509803922  0 0 0 0 0.9686274509803922  0 0 0 0.9921568627450981 0  " in="shadowComposite" />
    </filter>
    <g id="widget139">
      <path d="M 16.789713541666668 0.35872395833333226  C 16.92990451388889 0.597873263888885  17 0.881076388888885  17 1.2083333333333321  L 17 27.791666666666668  C 17 28.118923611111107  16.92990451388889 28.402126736111107  16.789713541666668 28.641276041666668  C 16.649522569444446 28.880425347222225  16.483506944444446 29  16.291666666666668 29  L 10.625 29  C 10.433159722222223 29  10.267144097222223 28.880425347222225  10.126953125 28.641276041666668  C 9.986762152777777 28.402126736111107  9.916666666666668 28.118923611111107  10 27.791666666666668  L 10 1.2083333333333321  C 9.916666666666668 0.881076388888885  9.986762152777777 0.597873263888885  10.126953125 0.35872395833333226  C 10.267144097222223 0.11957465277777635  10.433159722222223 0  10.625 0  L 16.291666666666668 0  C 16.483506944444446 0  16.649522569444446 0.11957465277777635  16.789713541666668 0.35872395833333226  Z M 6.873046875 0.35872395833333226  C 7.013237847222223 0.597873263888885  7.083333333333334 0.881076388888885  7 1.2083333333333321  L 7 27.791666666666668  C 7.083333333333334 28.118923611111107  7.013237847222223 28.402126736111107  6.873046875 28.641276041666668  C 6.732855902777779 28.880425347222225  6.566840277777779 29  6.375 29  L 0.7083333333333333 29  C 0.5164930555555556 29  0.3504774305555555 28.880425347222225  0.21028645833333331 28.641276041666668  C 0.07009548611111112 28.402126736111107  0 28.118923611111107  0 27.791666666666668  L 0 1.2083333333333321  C 0 0.881076388888885  0.07009548611111112 0.597873263888885  0.21028645833333331 0.35872395833333226  C 0.3504774305555555 0.11957465277777635  0.5164930555555556 0  0.7083333333333333 0  L 6.375 0  C 6.566840277777779 0  6.732855902777779 0.11957465277777635  6.873046875 0.35872395833333226  Z " fill-rule="nonzero" fill="#ffffff" stroke="none" transform="matrix(1 0 0 1 514 728 )" />
    </g>
  </defs>
  <g transform="matrix(1 0 0 1 -510 -724 )">
    <use xlink:href="#widget139" filter="url(#filter138)" />
    <use xlink:href="#widget139" />
  </g>
</svg>