<?xml version="1.0" encoding="utf-8"?>
<svg version="1.1" xmlns:xlink="http://www.w3.org/1999/xlink" width="19px" height="26px" xmlns="http://www.w3.org/2000/svg">
  <g transform="matrix(1 0 0 1 -22 -18 )">
    <path d="M 12.8583984375 11.73046875  C 13.7861328125 10.884114583333332  14.25 9.862847222222223  14.25 8.666666666666668  C 14.25 7.47048611111111  13.7861328125 6.44921875  12.8583984375 5.602864583333332  C 11.9306640625 4.756510416666668  10.811197916666668 4.333333333333332  9.5 4.333333333333332  C 8.188802083333334 4.333333333333332  7.0693359375 4.756510416666668  6.1416015625 5.602864583333332  C 5.2138671875 6.44921875  4.75 7.47048611111111  4.75 8.666666666666668  C 4.75 9.862847222222223  5.2138671875 10.884114583333332  6.1416015625 11.73046875  C 7.0693359375 12.576822916666668  8.188802083333334 13  9.5 13  C 10.811197916666668 13  11.9306640625 12.576822916666668  12.8583984375 11.73046875  Z M 16.216796875 2.5390625  C 18.072265625 4.231770833333332  19 6.274305555555552  19 8.666666666666668  C 19 9.896701388888888  18.7958984375 10.906684027777777  18.3876953125 11.696614583333332  L 11.6337890625 24.798177083333332  C 11.435872395833334 25.170572916666668  11.14208984375 25.463975694444443  10.75244140625 25.678385416666668  C 10.36279296875 25.89279513888889  9.9453125 26  9.5 26  C 9.0546875 26  8.63720703125 25.89279513888889  8.24755859375 25.678385416666668  C 7.85791015625 25.463975694444443  7.5703125 25.170572916666668  7.384765625 24.798177083333332  L 0.6123046875 11.696614583333332  C 0.2041015625 10.906684027777777  0 9.896701388888888  0 8.666666666666668  C 0 6.274305555555552  0.927734375 4.231770833333332  2.783203125 2.5390625  C 4.638671875000001 0.8463541666666676  6.877604166666667 0  9.5 0  C 12.122395833333334 0  14.361328125 0.8463541666666676  16.216796875 2.5390625  Z " fill-rule="nonzero" fill="#ffffff" stroke="none" transform="matrix(1 0 0 1 22 18 )" />
  </g>
</svg>