<?xml version="1.0" encoding="utf-8"?>
<svg version="1.1" xmlns:xlink="http://www.w3.org/1999/xlink" width="34px" height="33px" xmlns="http://www.w3.org/2000/svg">
  <g transform="matrix(1 0 0 1 -982 -22 )">
    <path d="M 32.649739583333336 10.097656250000002  C 33.54991319444444 12.131510416666668  34 14.265624999999998  34 16.5  C 34 18.734374999999996  33.54991319444444 20.86848958333333  32.649739583333336 22.902343750000004  C 31.749565972222225 24.936197916666668  30.53949652777778 26.690755208333332  29.01953125 28.166015625  C 27.499565972222225 29.641276041666668  25.69184027777778 30.815755208333332  23.596354166666664 31.689453125  C 21.500868055555557 32.563151041666664  19.302083333333336 33  17 33  C 14.461805555555557 33  12.04904513888889 32.48079427083333  9.76171875 31.4423828125  C 7.474392361111112 30.403971354166668  5.526475694444445 28.939453125  3.91796875 27.048828125  C 3.8146701388888893 26.905598958333332  3.7667100694444446 26.744466145833332  3.774088541666667 26.5654296875  C 3.7814670138888893 26.386393229166668  3.844184027777778 26.239583333333332  3.962239583333333 26.125  L 6.994791666666666 23.160156250000004  C 7.142361111111112 23.031250000000004  7.326822916666666 22.966796875000004  7.548177083333334 22.966796875000004  C 7.784288194444445 22.99544270833333  7.953993055555556 23.081380208333332  8.057291666666666 23.224609375000004  C 9.134548611111112 24.585286458333336  10.45529513888889 25.638020833333332  12.01953125 26.3828125  C 13.583767361111112 27.127604166666668  15.243923611111112 27.5  17 27.5  C 18.534722222222225 27.5  19.999348958333336 27.2099609375  21.393880208333336 26.6298828125  C 22.788411458333336 26.0498046875  23.994791666666664 25.265625  25.013020833333336 24.277343749999996  C 26.03125 23.289062500000004  26.839192708333336 22.118164062499996  27.436848958333336 20.764648437499996  C 28.034505208333336 19.411132812499996  28.333333333333336 17.989583333333332  28.333333333333336 16.5  C 28.333333333333336 15.010416666666664  28.034505208333336 13.588867187499998  27.436848958333336 12.235351562499998  C 26.839192708333336 10.881835937499998  26.03125 9.710937500000002  25.013020833333336 8.722656249999998  C 23.994791666666664 7.734375  22.788411458333336 6.950195312499999  21.393880208333336 6.370117187499999  C 19.999348958333336 5.790039062499999  18.534722222222225 5.499999999999999  17 5.499999999999999  C 15.553819444444446 5.499999999999999  14.166666666666668 5.754231770833333  12.838541666666668 6.262695312500001  C 11.510416666666668 6.7711588541666625  10.329861111111112 7.498046874999999  9.296875 8.443359375  L 12.329427083333332 11.408203125  C 12.786892361111112 11.837890625000002  12.890190972222223 12.332031249999998  12.639322916666668 12.890625  C 12.388454861111112 13.463541666666668  11.953125 13.749999999999998  11.333333333333332 13.749999999999998  L 1.4166666666666665 13.749999999999998  C 1.0329861111111112 13.749999999999998  0.700954861111111 13.613932291666668  0.42057291666666663 13.341796875  C 0.14019097222222224 13.069661458333332  0 12.747395833333332  0 12.375  L 0 2.7500000000000013  C 0 2.1484374999999987  0.29513888888888884 1.725911458333333  0.8854166666666667 1.482421875  C 1.4609375 1.2389322916666634  1.9700520833333335 1.339192708333333  2.412760416666667 1.7832031250000013  L 5.290364583333334 4.554687500000001  C 6.869357638888889 3.1080729166666634  8.673394097222223 1.9873046874999987  10.702473958333332 1.1923828125  C 12.731553819444446 0.3974609375000012  14.830729166666668 0  17 0  C 19.302083333333336 0  21.500868055555557 0.4368489583333329  23.596354166666664 1.3105468749999987  C 25.69184027777778 2.1842447916666647  27.499565972222225 3.3587239583333317  29.01953125 4.833984375  C 30.53949652777778 6.309244791666664  31.749565972222225 8.063802083333332  32.649739583333336 10.097656250000002  Z M 19.634114583333336 9.818359374999998  C 19.766927083333336 9.947265624999998  19.833333333333336 10.111979166666664  19.833333333333336 10.3125  L 19.833333333333336 19.937500000000004  C 19.833333333333336 20.138020833333336  19.766927083333336 20.302734375  19.634114583333336 20.431640625  C 19.501302083333336 20.560546875  19.331597222222225 20.625  19.125 20.625  L 12.041666666666668 20.625  C 11.835069444444446 20.625  11.665364583333332 20.560546875  11.532552083333332 20.431640625  C 11.399739583333332 20.302734375  11.333333333333332 20.138020833333336  11.333333333333332 19.937500000000004  L 11.333333333333332 18.5625  C 11.333333333333332 18.361979166666668  11.399739583333332 18.197265625000004  11.532552083333332 18.068359375000004  C 11.665364583333332 17.939453125000004  11.835069444444446 17.875000000000004  12.041666666666668 17.875000000000004  L 17 17.875000000000004  L 17 10.3125  C 17 10.111979166666664  17.06640625 9.947265624999998  17.19921875 9.818359374999998  C 17.332031250000004 9.689453124999998  17.501736111111114 9.624999999999998  17.708333333333336 9.624999999999998  L 19.125 9.624999999999998  C 19.331597222222225 9.624999999999998  19.501302083333336 9.689453124999998  19.634114583333336 9.818359374999998  Z " fill-rule="nonzero" fill="#000000" stroke="none" transform="matrix(1 0 0 1 982 22 )" />
  </g>
</svg>