<?xml version="1.0" encoding="utf-8"?>
<svg version="1.1" xmlns:xlink="http://www.w3.org/1999/xlink" width="54px" height="55px" xmlns="http://www.w3.org/2000/svg">
  <defs>
    <filter x="14px" y="6px" width="54px" height="55px" filterUnits="userSpaceOnUse" id="filter160">
      <feOffset dx="0" dy="0" in="SourceAlpha" result="shadowOffsetInner" />
      <feGaussianBlur stdDeviation="6.5" in="shadowOffsetInner" result="shadowGaussian" />
      <feComposite in2="shadowGaussian" operator="atop" in="SourceAlpha" result="shadowComposite" />
      <feColorMatrix type="matrix" values="0 0 0 0 0  0 0 0 0 0  0 0 0 0 0  0 0 0 0.9921568627450981 0  " in="shadowComposite" />
    </filter>
    <g id="widget161">
      <path d="M 7.35546875 13.6525974025974  L 26.76953125 0.28246753246753176  C 27.115885416666668 0.04393939393939261  27.407552083333336 -0.037662337662339285  27.64453125 0.037662337662336065  C 27.881510416666668 0.11298701298701141  28 0.3138528138528113  28 0.6402597402597389  L 28 28.35974025974026  C 28 28.686147186147185  27.881510416666668 28.887012987012987  27.64453125 28.962337662337664  C 27.407552083333336 29.03766233766234  27.115885416666668 28.956060606060607  26.76953125 28.717532467532468  L 7.35546875 15.3474025974026  C 7.19140625 15.234415584415585  7.072916666666667 15.115151515151515  7 14.989610389610391  L 7 27.75714285714286  C 7 28.08354978354978  6.826822916666667 28.366017316017313  6.48046875 28.604545454545452  C 6.134114583333334 28.843073593073598  5.723958333333334 28.962337662337664  5.25 28.962337662337664  L 1.75 28.962337662337664  C 1.2760416666666667 28.962337662337664  0.8658854166666667 28.843073593073598  0.51953125 28.604545454545452  C 0.17317708333333331 28.366017316017313  0 28.08354978354978  0 27.75714285714286  L 0 1.2428571428571416  C 0 0.9164502164502141  0.17317708333333331 0.6339826839826823  0.51953125 0.3954545454545464  C 0.8658854166666667 0.15692640692640403  1.2760416666666667 0.037662337662336065  1.75 0.037662337662336065  L 5.25 0.037662337662336065  C 5.723958333333334 0.037662337662336065  6.134114583333334 0.15692640692640403  6.48046875 0.3954545454545464  C 6.826822916666667 0.6339826839826823  7 0.9164502164502141  7 1.2428571428571416  L 7 14.010389610389613  C 7.072916666666667 13.884848484848485  7.19140625 13.765584415584415  7.35546875 13.6525974025974  Z " fill-rule="nonzero" fill="#000000" stroke="none" transform="matrix(1 0 0 1 27 19 )" />
    </g>
  </defs>
  <g transform="matrix(1 0 0 1 -14 -6 )">
    <use xlink:href="#widget161" filter="url(#filter160)" />
    <use xlink:href="#widget161" />
  </g>
</svg>