<?xml version="1.0" encoding="utf-8"?>
<svg version="1.1" xmlns:xlink="http://www.w3.org/1999/xlink" width="45px" height="44px" xmlns="http://www.w3.org/2000/svg">
  <defs>
    <filter x="38px" y="530px" width="45px" height="44px" filterUnits="userSpaceOnUse" id="filter173">
      <feOffset dx="0" dy="0" in="SourceAlpha" result="shadowOffsetInner" />
      <feGaussianBlur stdDeviation="2.5" in="shadowOffsetInner" result="shadowGaussian" />
      <feComposite in2="shadowGaussian" operator="atop" in="SourceAlpha" result="shadowComposite" />
      <feColorMatrix type="matrix" values="0 0 0 0 0  0 0 0 0 0  0 0 0 0 0  0 0 0 0.9372549019607843 0  " in="shadowComposite" />
    </filter>
    <g id="widget174">
      <path d="M 20.211588541666668 8.69921875  C 20.348307291666668 8.83203125  20.416666666666668 9.001736111111107  20.416666666666668 9.208333333333334  L 20.416666666666668 19.125  C 20.416666666666668 19.33159722222222  20.348307291666668 19.501302083333332  20.211588541666668 19.634114583333332  C 20.074869791666668 19.766927083333332  19.900173611111114 19.833333333333332  19.6875 19.833333333333332  L 12.395833333333334 19.833333333333332  C 12.183159722222225 19.833333333333332  12.008463541666666 19.766927083333332  11.871744791666666 19.634114583333332  C 11.735026041666666 19.501302083333332  11.666666666666666 19.33159722222222  11.666666666666666 19.125  L 11.666666666666666 17.708333333333332  C 11.666666666666666 17.50173611111111  11.735026041666666 17.33203125  11.871744791666666 17.19921875  C 12.008463541666666 17.06640625  12.183159722222225 17  12.395833333333334 17  L 17.5 17  L 17.5 9.208333333333334  C 17.5 9.001736111111107  17.568359375 8.83203125  17.705078125 8.69921875  C 17.841796875000004 8.56640625  18.016493055555557 8.5  18.229166666666668 8.5  L 19.6875 8.5  C 19.900173611111114 8.5  20.074869791666668 8.56640625  20.211588541666668 8.69921875  Z M 28.232421875 23.04296875  C 29.34136284722222 21.198350694444443  29.895833333333332 19.18402777777778  29.895833333333332 17  C 29.895833333333332 14.815972222222221  29.34136284722222 12.801649305555555  28.232421875 10.95703125  C 27.123480902777782 9.112413194444441  25.619574652777782 7.651475694444441  23.720703125 6.57421875  C 21.82183159722222 5.496961805555555  19.74826388888889 4.958333333333335  17.5 4.958333333333335  C 15.25173611111111 4.958333333333335  13.178168402777779 5.496961805555555  11.279296875 6.57421875  C 9.380425347222223 7.651475694444441  7.876519097222222 9.112413194444441  6.767578125 10.95703125  C 5.658637152777779 12.801649305555555  5.104166666666667 14.815972222222221  5.104166666666667 17  C 5.104166666666667 19.18402777777778  5.658637152777779 21.198350694444443  6.767578125 23.04296875  C 7.876519097222222 24.88758680555555  9.380425347222223 26.348524305555554  11.279296875 27.42578125  C 13.178168402777779 28.503038194444446  15.25173611111111 29.041666666666664  17.5 29.041666666666664  C 19.74826388888889 29.041666666666664  21.82183159722222 28.503038194444446  23.720703125 27.42578125  C 25.619574652777782 26.348524305555554  27.123480902777782 24.88758680555555  28.232421875 23.04296875  Z M 32.65299479166667 8.466796875  C 34.21766493055555 11.071397569444441  35 13.915798611111107  35 17  C 35 20.08420138888889  34.21766493055555 22.92860243055555  32.65299479166667 25.533203125  C 31.088324652777782 28.137803819444446  28.96538628472222 30.200086805555554  26.2841796875 31.720052083333336  C 23.602973090277782 33.240017361111114  20.674913194444446 34  17.5 34  C 14.325086805555557 34  11.397026909722223 33.240017361111114  8.7158203125 31.720052083333336  C 6.034613715277779 30.200086805555554  3.9116753472222228 28.137803819444446  2.3470052083333335 25.533203125  C 0.7823350694444443 22.92860243055555  0 20.08420138888889  0 17  C 0 13.915798611111107  0.7823350694444443 11.071397569444441  2.3470052083333335 8.466796875  C 3.9116753472222228 5.862196180555555  6.034613715277779 3.799913194444441  8.7158203125 2.279947916666665  C 11.397026909722223 0.759982638888886  14.325086805555557 0  17.5 0  C 20.674913194444446 0  23.602973090277782 0.759982638888886  26.2841796875 2.279947916666665  C 28.96538628472222 3.799913194444441  31.088324652777782 5.862196180555555  32.65299479166667 8.466796875  Z " fill-rule="nonzero" fill="#2363d9" stroke="none" transform="matrix(1 0 0 1 43 535 )" />
    </g>
  </defs>
  <g transform="matrix(1 0 0 1 -38 -530 )">
    <use xlink:href="#widget174" filter="url(#filter173)" />
    <use xlink:href="#widget174" />
  </g>
</svg>