<?xml version="1.0" encoding="utf-8"?>
<svg version="1.1" xmlns:xlink="http://www.w3.org/1999/xlink" width="5px" height="25px" xmlns="http://www.w3.org/2000/svg">
  <g transform="matrix(1 0 0 1 -827 -45 )">
    <path d="M 4.635416666666667 18.67897727272727  C 4.878472222222221 19.010416666666664  5 19.41287878787879  5 19.886363636363637  L 5 23.295454545454547  C 5 23.768939393939394  4.878472222222221 24.171401515151516  4.635416666666667 24.50284090909091  C 4.392361111111112 24.834280303030305  4.097222222222222 25  3.75 25  L 1.25 25  C 0.9027777777777779 25  0.607638888888889 24.834280303030305  0.36458333333333337 24.50284090909091  C 0.12152777777777776 24.171401515151516  0 23.768939393939394  0 23.295454545454547  L 0 19.886363636363637  C 0 19.41287878787879  0.12152777777777776 19.010416666666664  0.36458333333333337 18.67897727272727  C 0.607638888888889 18.347537878787882  0.9027777777777779 18.181818181818183  1.25 18.181818181818183  L 3.75 18.181818181818183  C 4.097222222222222 18.181818181818183  4.392361111111112 18.347537878787882  4.635416666666667 18.67897727272727  Z M 4.635416666666667 9.588068181818182  C 4.878472222222221 9.919507575757573  5 10.321969696969695  5 10.795454545454545  L 5 14.204545454545453  C 5 14.678030303030305  4.878472222222221 15.080492424242422  4.635416666666667 15.411931818181818  C 4.392361111111112 15.74337121212121  4.097222222222222 15.909090909090908  3.75 15.909090909090908  L 1.25 15.909090909090908  C 0.9027777777777779 15.909090909090908  0.607638888888889 15.74337121212121  0.36458333333333337 15.411931818181818  C 0.12152777777777776 15.080492424242422  0 14.678030303030305  0 14.204545454545453  L 0 10.795454545454545  C 0 10.321969696969695  0.12152777777777776 9.919507575757573  0.36458333333333337 9.588068181818182  C 0.607638888888889 9.256628787878787  0.9027777777777779 9.090909090909092  1.25 9.090909090909092  L 3.75 9.090909090909092  C 4.097222222222222 9.090909090909092  4.392361111111112 9.256628787878787  4.635416666666667 9.588068181818182  Z M 4.635416666666667 0.49715909090909116  C 4.878472222222221 0.8285984848484834  5 1.231060606060605  5 1.704545454545456  L 5 5.113636363636365  C 5 5.58712121212121  4.878472222222221 5.989583333333331  4.635416666666667 6.321022727272727  C 4.392361111111112 6.652462121212118  4.097222222222222 6.8181818181818175  3.75 6.8181818181818175  L 1.25 6.8181818181818175  C 0.9027777777777779 6.8181818181818175  0.607638888888889 6.652462121212118  0.36458333333333337 6.321022727272727  C 0.12152777777777776 5.989583333333331  0 5.58712121212121  0 5.113636363636365  L 0 1.704545454545456  C 0 1.231060606060605  0.12152777777777776 0.8285984848484834  0.36458333333333337 0.49715909090909116  C 0.607638888888889 0.16571969696969613  0.9027777777777779 0  1.25 0  L 3.75 0  C 4.097222222222222 0  4.392361111111112 0.16571969696969613  4.635416666666667 0.49715909090909116  Z " fill-rule="nonzero" fill="#fff8f8" stroke="none" fill-opacity="0.7607843137254902" transform="matrix(1 0 0 1 827 45 )" />
  </g>
</svg>