<?xml version="1.0" encoding="utf-8"?>
<svg version="1.1" xmlns:xlink="http://www.w3.org/1999/xlink" width="25px" height="26px" xmlns="http://www.w3.org/2000/svg">
  <g transform="matrix(1 0 0 1 -313 -104 )">
    <path d="M 15.33203125 15.9453125  C 16.649138621794872 14.575520833333332  17.307692307692307 12.927083333333332  17.307692307692307 11.000000000000002  C 17.307692307692307 9.072916666666664  16.649138621794872 7.424479166666665  15.33203125 6.0546875  C 14.01492387820513 4.684895833333331  12.429887820512821 4  10.576923076923077 4  C 8.723958333333334 4  7.138922275641027 4.684895833333331  5.821814903846153 6.0546875  C 4.504707532051282 7.424479166666665  3.8461538461538463 9.072916666666664  3.8461538461538463 11.000000000000002  C 3.8461538461538463 12.927083333333332  4.504707532051282 14.575520833333332  5.821814903846153 15.9453125  C 7.138922275641027 17.315104166666664  8.723958333333334 18  10.576923076923077 18  C 12.429887820512821 18  14.01492387820513 17.315104166666664  15.33203125 15.9453125  Z M 24.444110576923077 22.59375  C 24.814703525641026 22.979166666666668  25 23.447916666666668  25 24  C 25 24.541666666666668  24.809695512820515 25.010416666666668  24.42908653846154 25.40625  C 24.048477564102566 25.802083333333332  23.597756410256412 26  23.076923076923077 26  C 22.536057692307693 26  22.08533653846154 25.802083333333332  21.724759615384613 25.40625  L 16.571514423076923 20.0625  C 14.778645833333334 21.354166666666668  12.780448717948719 22  10.576923076923077 22  C 9.14463141025641 22  7.774939903846153 21.7109375  6.4678485576923075 21.1328125  C 5.160757211538462 20.5546875  4.033954326923077 19.7734375  3.087439903846154 18.7890625  C 2.140925480769231 17.8046875  1.389723557692308 16.6328125  0.8338341346153846 15.2734375  C 0.27794471153846156 13.9140625  0 12.48958333333333  0 11.000000000000002  C 0 9.510416666666663  0.27794471153846156 8.0859375  0.8338341346153846 6.7265625  C 1.389723557692308 5.367187499999999  2.140925480769231 4.195312500000002  3.087439903846154 3.2109375  C 4.033954326923077 2.226562500000001  5.160757211538462 1.4453124999999996  6.4678485576923075 0.8671875000000009  C 7.774939903846153 0.28906249999999933  9.14463141025641 0  10.576923076923077 0  C 12.009214743589745 0  13.37890625 0.28906249999999933  14.685997596153847 0.8671875000000009  C 15.993088942307693 1.4453124999999996  17.119891826923077 2.226562500000001  18.06640625 3.2109375  C 19.012920673076923 4.195312500000002  19.764122596153847 5.367187499999999  20.320012019230766 6.7265625  C 20.875901442307693 8.0859375  21.153846153846153 9.510416666666663  21.153846153846153 11.000000000000002  C 21.153846153846153 13.291666666666666  20.532852564102566 15.369791666666664  19.290865384615387 17.234375  L 24.444110576923077 22.59375  Z " fill-rule="nonzero" fill="#322f2f" stroke="none" fill-opacity="0.8196078431372549" transform="matrix(1 0 0 1 313 104 )" />
  </g>
</svg>