<?xml version="1.0" encoding="utf-8"?>
<svg version="1.1" xmlns:xlink="http://www.w3.org/1999/xlink" width="47px" height="42px" xmlns="http://www.w3.org/2000/svg">
  <defs>
    <filter x="38px" y="473px" width="47px" height="42px" filterUnits="userSpaceOnUse" id="filter210">
      <feOffset dx="0" dy="0" in="SourceAlpha" result="shadowOffsetInner" />
      <feGaussianBlur stdDeviation="2.5" in="shadowOffsetInner" result="shadowGaussian" />
      <feComposite in2="shadowGaussian" operator="atop" in="SourceAlpha" result="shadowComposite" />
      <feColorMatrix type="matrix" values="0 0 0 0 0  0 0 0 0 0  0 0 0 0 0  0 0 0 0 0  " in="shadowComposite" />
    </filter>
    <g id="widget211">
      <path d="M 35.51021634615385 10.613636363636363  C 36.50340544871795 12.734848484848484  37 14.939393939393938  37 17.227272727272727  C 37 19.742424242424242  36.55528846153846 22.121212121212118  35.66586538461539 24.363636363636363  L 35.22115384615385 25.477272727272727  L 31.107572115384613 26.227272727272727  C 30.781450320512825 27.484848484848484  30.110677083333336 28.51893939393939  29.095252403846157 29.329545454545453  C 28.079827724358978 30.140151515151516  26.9198717948718 30.545454545454547  25.615384615384613 30.545454545454547  L 25.615384615384613 31.272727272727273  C 25.615384615384613 31.484848484848484  25.548677884615387 31.65909090909091  25.415264423076923 31.795454545454547  C 25.281850961538463 31.931818181818183  25.11137820512821 32  24.903846153846157 32  L 23.48076923076923 32  C 23.273237179487182 32  23.102764423076923 31.931818181818183  22.969350961538463 31.795454545454547  C 22.8359375 31.65909090909091  22.76923076923077 31.484848484848484  22.76923076923077 31.272727272727273  L 22.76923076923077 18.18181818181818  C 22.76923076923077 17.96969696969697  22.8359375 17.795454545454547  22.969350961538463 17.659090909090907  C 23.102764423076923 17.522727272727273  23.273237179487182 17.454545454545453  23.48076923076923 17.454545454545453  L 24.903846153846157 17.454545454545453  C 25.11137820512821 17.454545454545453  25.281850961538463 17.522727272727273  25.415264423076923 17.659090909090907  C 25.548677884615387 17.795454545454547  25.615384615384613 17.96969696969697  25.615384615384613 18.18181818181818  L 25.615384615384613 18.909090909090907  C 26.66786858974359 18.909090909090907  27.631410256410255 19.1780303030303  28.506009615384613 19.715909090909093  C 29.380608974358978 20.253787878787875  30.06991185897436 20.977272727272727  30.57391826923077 21.886363636363637  L 32.0859375 21.613636363636363  C 32.515825320512825 20.174242424242422  32.730769230769226 18.71212121212121  32.730769230769226 17.227272727272727  C 32.730769230769226 14.984848484848484  32.07852564102564 12.871212121212121  30.774038461538463 10.886363636363637  C 29.469551282051285 8.901515151515152  27.716646634615387 7.318181818181817  25.51532451923077 6.136363636363637  C 23.314002403846157 4.954545454545453  20.975560897435898 4.363636363636363  18.5 4.363636363636363  C 16.024439102564106 4.363636363636363  13.685997596153847 4.954545454545453  11.484675480769232 6.136363636363637  C 9.283353365384615 7.318181818181817  7.530448717948718 8.901515151515152  6.225961538461539 10.886363636363637  C 4.921474358974359 12.871212121212121  4.269230769230769 14.984848484848484  4.269230769230769 17.227272727272727  C 4.269230769230769 18.71212121212121  4.48417467948718 20.174242424242422  4.9140625 21.613636363636363  L 6.426081730769231 21.886363636363637  C 6.930088141025641 20.977272727272727  7.619391025641026 20.253787878787875  8.493990384615385 19.715909090909093  C 9.368589743589745 19.1780303030303  10.332131410256412 18.909090909090907  11.384615384615385 18.909090909090907  L 11.384615384615385 18.18181818181818  C 11.384615384615385 17.96969696969697  11.451322115384615 17.795454545454547  11.584735576923078 17.659090909090907  C 11.718149038461538 17.522727272727273  11.888621794871796 17.454545454545453  12.096153846153847 17.454545454545453  L 13.519230769230768 17.454545454545453  C 13.726762820512821 17.454545454545453  13.897235576923078 17.522727272727273  14.030649038461538 17.659090909090907  C 14.1640625 17.795454545454547  14.230769230769232 17.96969696969697  14.230769230769232 18.18181818181818  L 14.230769230769232 31.272727272727273  C 14.230769230769232 31.484848484848484  14.1640625 31.65909090909091  14.030649038461538 31.795454545454547  C 13.897235576923078 31.931818181818183  13.726762820512821 32  13.519230769230768 32  L 12.096153846153847 32  C 11.888621794871796 32  11.718149038461538 31.931818181818183  11.584735576923078 31.795454545454547  C 11.451322115384615 31.65909090909091  11.384615384615385 31.484848484848484  11.384615384615385 31.272727272727273  L 11.384615384615385 30.545454545454547  C 10.080128205128206 30.545454545454547  8.920172275641026 30.140151515151516  7.904747596153847 29.329545454545453  C 6.889322916666667 28.51893939393939  6.21854967948718 27.484848484848484  5.892427884615384 26.227272727272727  L 1.778846153846154 25.477272727272727  L 1.3341346153846152 24.363636363636363  C 0.4447115384615385 22.121212121212118  0 19.742424242424242  0 17.227272727272727  C 0 14.939393939393938  0.49659455128205127 12.734848484848484  1.489783653846154 10.613636363636363  C 2.4829727564102564 8.492424242424239  3.809695512820513 6.655303030303028  5.469951923076923 5.102272727272727  C 7.130208333333334 3.549242424242422  9.101762820512821 2.3106060606060588  11.384615384615385 1.3863636363636367  C 13.667467948717949 0.46212121212121104  16.03926282051282 0  18.5 0  C 20.960737179487182 0  23.332532051282055 0.46212121212121104  25.615384615384613 1.3863636363636367  C 27.898237179487182 2.3106060606060588  29.869791666666668 3.549242424242422  31.530048076923077 5.102272727272727  C 33.19030448717949 6.655303030303028  34.517027243589745 8.492424242424239  35.51021634615385 10.613636363636363  Z " fill-rule="nonzero" fill="#2363d9" stroke="none" transform="matrix(1 0 0 1 43 478 )" />
    </g>
  </defs>
  <g transform="matrix(1 0 0 1 -38 -473 )">
    <use xlink:href="#widget211" filter="url(#filter210)" />
    <use xlink:href="#widget211" />
  </g>
</svg>