<?xml version="1.0" encoding="utf-8"?>
<svg version="1.1" xmlns:xlink="http://www.w3.org/1999/xlink" width="41px" height="37px" xmlns="http://www.w3.org/2000/svg">
  <defs>
    <filter x="42px" y="596px" width="41px" height="37px" filterUnits="userSpaceOnUse" id="filter214">
      <feOffset dx="0" dy="0" in="SourceAlpha" result="shadowOffsetInner" />
      <feGaussianBlur stdDeviation="2.5" in="shadowOffsetInner" result="shadowGaussian" />
      <feComposite in2="shadowGaussian" operator="atop" in="SourceAlpha" result="shadowComposite" />
      <feColorMatrix type="matrix" values="0 0 0 0 0  0 0 0 0 0  0 0 0 0 0  0 0 0 0 0  " in="shadowComposite" />
    </filter>
    <g id="widget215">
      <path d="M 16.26116071428571 26.68359375  C 16.05357142857143 26.89453125  15.799851190476192 27  15.5 27  C 15.20014880952381 27  14.946428571428573 26.89453125  14.738839285714285 26.68359375  L 3.9441964285714284 16.101562500000004  C 3.828869047619048 16.0078125  3.670293898809524 15.855468749999998  3.468470982142857 15.644531249999998  C 3.2666480654761907 15.433593749999998  2.9466145833333335 15.049804687500002  2.508370535714286 14.493164062500002  C 2.070126488095238 13.936523437499996  1.678013392857143 13.365234374999998  1.33203125 12.779296874999998  C 0.9860491071428571 12.193359375  0.6775483630952381 11.484375  0.40652901785714285 10.65234375  C 0.13550967261904762 9.820312499999996  0 9.011718749999998  0 8.2265625  C 0 5.648437499999998  0.732328869047619 3.6328124999999982  2.196986607142857 2.179687499999999  C 3.661644345238096 0.7265624999999997  5.6856398809523805 0  8.268973214285715 0  C 8.984002976190476 0  9.713448660714285 0.12597656249999833  10.457310267857144 0.377929687500001  C 11.201171875 0.6298828124999977  11.893136160714285 0.9697265624999983  12.533203125 1.3974609375  C 13.173270089285717 1.8251953124999987  13.723958333333336 2.2265624999999973  14.185267857142856 2.601562499999999  C 14.646577380952383 2.976562499999998  15.084821428571429 3.375  15.5 3.796875  C 15.91517857142857 3.375  16.35342261904762 2.976562499999998  16.814732142857142 2.601562499999999  C 17.276041666666668 2.2265624999999973  17.82672991071429 1.8251953124999987  18.466796875 1.3974609375  C 19.10686383928571 0.9697265624999983  19.798828125 0.6298828124999977  20.542689732142858 0.377929687500001  C 21.28655133928571 0.12597656249999833  22.015997023809526 0  22.73102678571429 0  C 25.31436011904762 0  27.33835565476191 0.7265624999999997  28.803013392857142 2.179687499999999  C 30.267671130952383 3.6328124999999982  31 5.648437499999998  31 8.2265625  C 31 10.816406249999998  29.679501488095237 13.453124999999998  27.03850446428571 16.13671875  L 16.26116071428571 26.68359375  Z " fill-rule="nonzero" fill="#2363d9" stroke="none" transform="matrix(1 0 0 1 47 601 )" />
    </g>
  </defs>
  <g transform="matrix(1 0 0 1 -42 -596 )">
    <use xlink:href="#widget215" filter="url(#filter214)" />
    <use xlink:href="#widget215" />
  </g>
</svg>