<?xml version="1.0" encoding="utf-8"?>
<svg version="1.1" xmlns:xlink="http://www.w3.org/1999/xlink" width="35px" height="28px" xmlns="http://www.w3.org/2000/svg">
  <g transform="matrix(1 0 0 1 -103 -32 )">
    <path d="M 34.36774193548387 3.8653198653198664  C 34.789247311827964 4.305274971941637  35.00000000000001 4.839506172839506  35 5.468013468013468  C 35.00000000000001 6.096520763187427  34.789247311827964 6.630751964085295  34.36774193548387 7.070707070707069  L 18.019354838709678 24.134680134680135  L 14.948387096774194 27.34006734006734  C 14.52688172043011 27.780022446689113  14.015053763440863 28  13.412903225806453 28  C 12.810752688172043 28  12.298924731182797 27.780022446689113  11.87741935483871 27.34006734006734  L 8.806451612903224 24.134680134680135  L 0.6322580645161291 15.602693602693606  C 0.21075268817204323 15.162738496071828  0 14.628507295173959  0 14  C 0 13.371492704826037  0.21075268817204323 12.83726150392817  0.6322580645161291 12.397306397306398  L 3.703225806451613 9.191919191919192  C 4.124731182795699 8.751964085297418  4.636559139784947 8.53198653198653  5.238709677419355 8.531986531986533  C 5.840860215053765 8.53198653198653  6.3526881720430115 8.751964085297418  6.774193548387097 9.191919191919192  L 13.412903225806453 16.144781144781142  L 28.2258064516129 0.65993265993266  C 28.647311827956994 0.21997755331088564  29.15913978494624 0  29.761290322580646 0  C 30.363440860215054 0  30.875268817204304 0.21997755331088564  31.296774193548387 0.65993265993266  L 34.36774193548387 3.8653198653198664  Z " fill-rule="nonzero" fill="#ffffff" stroke="none" transform="matrix(1 0 0 1 103 32 )" />
  </g>
</svg>