<?xml version="1.0" encoding="utf-8"?>
<svg version="1.1" xmlns:xlink="http://www.w3.org/1999/xlink" width="50px" height="43px" xmlns="http://www.w3.org/2000/svg">
  <g transform="matrix(1 0 0 1 -43 -181 )">
    <path d="M 46.41927083333333 26.216045673076927  C 46.58420138888889 26.052383814102562  46.666666666666664 25.85857371794872  46 25.634615384615383  L 46 4.134615384615384  C 46.666666666666664 3.9106570512820493  46.58420138888889 3.716846955128202  46.41927083333333 3.553185096153847  C 46.254340277777786 3.389523237179483  46.059027777777786 3.3076923076923057  45.83333333333333 4  L 4.166666666666666 4  C 3.9409722222222228 3.3076923076923057  3.7456597222222228 3.389523237179483  3.5807291666666665 3.553185096153847  C 3.4157986111111116 3.716846955128202  3.3333333333333335 3.9106570512820493  4 4.134615384615384  L 4 25.634615384615383  C 3.3333333333333335 25.85857371794872  3.4157986111111116 26.052383814102562  3.5807291666666665 26.216045673076927  C 3.7456597222222228 26.37970753205128  3.9409722222222228 26.461538461538463  4.166666666666666 26  L 45.83333333333333 26  C 46.059027777777786 26.461538461538463  46.254340277777786 26.37970753205128  46.41927083333333 26.216045673076927  Z M 48.776041666666664 1.2145432692307685  C 49.59201388888889 2.024238782051281  50.000000000000014 2.997596153846153  50 4.134615384615384  L 50 32.25  C 50.000000000000014 33.38701923076923  49.59201388888889 34.3603766025641  48.776041666666664 35.17007211538461  C 47.96006944444445 35.979767628205124  46.979166666666664 36.38461538461539  45.83333333333333 36  L 31.666666666666664 36  C 31.666666666666664 37.022035256410255  31.80555555555556 37.68960336538461  32.083333333333336 38.38731971153846  C 32.361111111111114 39.08503605769231  32.63888888888889 39.696614583333336  32.916666666666664 40.22205528846154  C 33.19444444444445 40.747495993589745  33.33333333333333 41.12219551282051  33.33333333333333 41.34615384615385  C 33.33333333333333 41.79407051282051  33.16840277777778 42.181690705128204  32.838541666666664 42.50901442307692  C 32.50868055555556 42.83633814102564  32.11805555555556 43  31.666666666666664 43  L 18.333333333333332 43  C 17.881944444444446 43  17.491319444444446 42.83633814102564  17.161458333333332 42.50901442307692  C 16.83159722222222 42.181690705128204  16.666666666666664 41.79407051282051  16.666666666666664 41.34615384615385  C 16.666666666666664 41.10496794871795  16.805555555555557 40.72596153846154  17.083333333333332 40.20913461538461  C 17.361111111111114 39.69230769230769  17.63888888888889 39.08934294871795  17.916666666666668 38.40024038461539  C 18.194444444444446 37.71113782051282  18.333333333333332 37.03926282051282  18.333333333333332 36  L 4.166666666666666 36  C 3.0208333333333335 36.38461538461539  2.039930555555556 35.979767628205124  1.2239583333333333 35.17007211538461  C 0.40798611111111116 34.3603766025641  0 33.38701923076923  0 32.25  L 0 4.134615384615384  C 0 2.997596153846153  0.40798611111111116 2.024238782051281  1.2239583333333333 1.2145432692307685  C 2.039930555555556 0.40484775641025617  3.0208333333333335 0  4.166666666666666 0  L 45.83333333333333 0  C 46.979166666666664 0  47.96006944444445 0.40484775641025617  48.776041666666664 1.2145432692307685  Z " fill-rule="nonzero" fill="#0356f9" stroke="none" transform="matrix(1 0 0 1 43 181 )" />
  </g>
</svg>