<?xml version="1.0" encoding="utf-8"?>
<svg version="1.1" xmlns:xlink="http://www.w3.org/1999/xlink" width="50px" height="50px" xmlns="http://www.w3.org/2000/svg">
  <g transform="matrix(1 0 0 1 -43 -434 )">
    <path d="M 28.352864583333332 34.147135416666664  C 28.548177083333332 34.342447916666664  28.645833333333332 34.592013888888886  28.645833333333332 34.895833333333336  L 28.645833333333332 40.10416666666667  C 28.645833333333332 40.40798611111111  28.548177083333332 40.65755208333333  28.352864583333332 40.85286458333333  C 28.157552083333332 41.04817708333333  27.90798611111111 41.14583333333333  27.604166666666668 41.14583333333333  L 22.395833333333336 41.14583333333333  C 22.092013888888893 41.14583333333333  21.842447916666664 41.04817708333333  21.647135416666664 40.85286458333333  C 21.451822916666664 40.65755208333333  21.354166666666664 40.40798611111111  21.354166666666664 40.10416666666667  L 21.354166666666664 34.895833333333336  C 21.354166666666664 34.592013888888886  21.451822916666664 34.342447916666664  21.647135416666664 34.147135416666664  C 21.842447916666664 33.951822916666664  22.092013888888893 33.854166666666664  22.395833333333336 33.854166666666664  L 27.604166666666668 33.854166666666664  C 27.90798611111111 33.854166666666664  28.157552083333332 33.951822916666664  28.352864583333332 34.147135416666664  Z M 33.41471354166667 11.767578125  C 35.791015625 13.709852430555552  36.97916666666667 16.037326388888886  36.97916666666667 18.75  C 36.97916666666667 19.835069444444443  36.81640625 20.811631944444443  36.49088541666667 21.6796875  C 36.16536458333333 22.547743055555554  35.671657986111114 23.29644097222222  35.009765625 23.92578125  C 34.34787326388889 24.555121527777775  33.783637152777786 25.032552083333336  33.31705729166667 25.358072916666664  C 32.85047743055556 25.68359375  32.204861111111114 26.07421875  31.380208333333332 26.529947916666664  C 30.68576388888889 26.920572916666664  30.181206597222225 27.224392361111104  29.866536458333332 27.44140625  C 29.551866319444446 27.658420138888886  29.26974826388889 27.918836805555557  29.020182291666668 28.22265625  C 28.770616319444446 28.526475694444443  28.645833333333332 28.841145833333336  28.645833333333332 29.166666666666664  L 28.645833333333332 30.208333333333336  C 28.645833333333332 30.51215277777778  28.548177083333332 30.76171875  28.352864583333332 30.95703125  C 28.157552083333332 31.15234375  27.90798611111111 31.25  27.604166666666668 31.25  L 22.395833333333336 31.25  C 22.092013888888893 31.25  21.842447916666664 31.15234375  21.647135416666664 30.95703125  C 21.451822916666664 30.76171875  21.354166666666664 30.51215277777778  21.354166666666664 30.208333333333336  L 21.354166666666664 27.994791666666664  C 21.354166666666664 27.235243055555557  21.468098958333336 26.535373263888886  21.695963541666664 25.895182291666664  C 21.923828125 25.254991319444443  22.184244791666664 24.739583333333332  22.477213541666664 24.348958333333332  C 22.770182291666664 23.958333333333332  23.193359375 23.573133680555554  23.746744791666664 23.193359375  C 24.300130208333336 22.813585069444443  24.745008680555557 22.53689236111111  25.081380208333332 22.36328125  C 25.417751736111114 22.18967013888889  25.90060763888889 21.961805555555554  26.529947916666668 21.6796875  C 27.68012152777778 21.137152777777775  28.49392361111111 20.670572916666668  28.971354166666668 20.279947916666668  C 29.448784722222225 19.889322916666668  29.687500000000007 19.35763888888889  29.6875 18.684895833333332  C 29.687500000000007 17.773437499999993  29.215494791666668 16.997612847222214  28.271484375 16.357421875  C 27.327473958333336 15.717230902777773  26.29123263888889 15.397135416666668  25.162760416666668 15.397135416666668  C 23.947482638888893 15.397135416666668  22.916666666666664 15.690104166666668  22.0703125 16.276041666666668  C 21.440972222222225 16.710069444444443  20.572916666666664 17.610677083333332  19.466145833333336 18.977864583333332  C 19.270833333333336 19.238281249999993  18.999565972222225 19.368489583333332  18.65234375 19.368489583333332  C 18.413628472222225 19.368489583333332  18.20746527777778 19.303385416666664  18.033854166666664 19.173177083333332  L 14.518229166666666 16.50390625  C 14.301215277777779 16.351996527777775  14.171006944444445 16.134982638888886  14.127604166666666 15.852864583333332  C 14.084201388888893 15.570746527777773  14.138454861111112 15.321180555555552  14.290364583333334 15.104166666666668  C 16.93793402777778 10.9375  20.724826388888893 8.854166666666668  25.651041666666668 8.854166666666668  C 28.450520833333332 8.854166666666668  31.038411458333332 9.825303819444443  33.41471354166667 11.767578125  Z M 33.08919270833333 5.826822916666669  C 30.517578125 4.720052083333331  27.821180555555557 4.166666666666669  25 4.166666666666669  C 22.178819444444446 4.166666666666669  19.482421875 4.720052083333331  16.910807291666664 5.826822916666669  C 14.339192708333334 6.93359375  12.125651041666668 8.414713541666668  10.270182291666668 10.270182291666668  C 8.414713541666668 12.125651041666668  6.93359375 14.339192708333332  5.826822916666666 16.910807291666668  C 4.720052083333334 19.482421875  4.166666666666666 22.178819444444443  4.166666666666666 25  C 4.166666666666666 27.821180555555557  4.720052083333334 30.517578125  5.826822916666666 33.089192708333336  C 6.93359375 35.660807291666664  8.414713541666668 37.87434895833333  10.270182291666668 39.72981770833333  C 12.125651041666668 41.58528645833333  14.339192708333334 43.06640625  16.910807291666664 44.17317708333333  C 19.482421875 45.27994791666667  22.178819444444446 45.83333333333333  25 45.83333333333333  C 27.821180555555557 45.83333333333333  30.517578125 45.27994791666667  33.08919270833333 44.17317708333333  C 35.66080729166667 43.06640625  37.87434895833333 41.58528645833333  39.72981770833333 39.72981770833333  C 41.58528645833333 37.87434895833333  43.06640625 35.660807291666664  44.17317708333333 33.089192708333336  C 45.27994791666667 30.517578125  45.83333333333333 27.821180555555557  45.83333333333333 25  C 45.83333333333333 22.178819444444443  45.27994791666667 19.482421875  44.17317708333333 16.910807291666668  C 43.06640625 14.339192708333332  41.58528645833333 12.125651041666668  39.72981770833333 10.270182291666668  C 37.87434895833333 8.414713541666668  35.66080729166667 6.93359375  33.08919270833333 5.826822916666669  Z M 46.64713541666667 12.451171875  C 48.882378472222214 16.281467013888886  50 20.464409722222214  50 25  C 50 29.53559027777778  48.882378472222214 33.71853298611111  46.64713541666667 37.548828125  C 44.411892361111114 41.37912326388889  41.37912326388889 44.41189236111111  37.548828125 46.64713541666667  C 33.718532986111114 48.88237847222223  29.53559027777778 50  25 50  C 20.464409722222225 50  16.28146701388889 48.88237847222223  12.451171875 46.64713541666667  C 8.620876736111112 44.41189236111111  5.588107638888889 41.37912326388889  3.3528645833333335 37.548828125  C 1.1176215277777777 33.71853298611111  0 29.53559027777778  0 25  C 0 20.464409722222214  1.1176215277777777 16.281467013888886  3.3528645833333335 12.451171875  C 5.588107638888889 8.62087673611111  8.620876736111112 5.588107638888884  12.451171875 3.3528645833333313  C 16.28146701388889 1.1176215277777735  20.464409722222225 0  25 0  C 29.53559027777778 0  33.718532986111114 1.1176215277777735  37.548828125 3.3528645833333313  C 41.37912326388889 5.588107638888884  44.411892361111114 8.62087673611111  46.64713541666667 12.451171875  Z " fill-rule="nonzero" fill="#0356f9" stroke="none" transform="matrix(1 0 0 1 43 434 )" />
  </g>
</svg>