<?xml version="1.0" encoding="utf-8"?>
<svg version="1.1" xmlns:xlink="http://www.w3.org/1999/xlink" width="50px" height="36px" xmlns="http://www.w3.org/2000/svg">
  <g transform="matrix(1 0 0 1 -43 -268 )">
    <path d="M 27.36761710794297 34.10322580645161  C 26.128649015614396 35.36774193548387  25.339443312966736 36  25 36  C 24.660556687033267 36  23.871350984385607 35.36774193548387  22.632382892057027 34.10322580645161  C 21.39341479972845 32.83870967741935  20.77393075356416 32.034408602150535  20.773930753564155 31.690322580645162  C 20.77393075356416 31.139784946236563  21.30431093007468 30.675268817204305  22.365071283095723 30.296774193548387  C 23.42583163611677 29.918279569892473  24.304141208418194 29.729032258064517  25 29.729032258064517  C 25.69585879158181 29.729032258064517  26.57416836388323 29.918279569892473  27.634928716904277 30.296774193548387  C 28.695689069925322 30.675268817204305  29.22606924643584 31.139784946236563  29.22606924643584 31.690322580645162  C 29.22606924643584 32.034408602150535  28.606585200271557 32.83870967741935  27.36761710794297 34.10322580645161  Z M 34.2540733197556 27.070967741935487  C 32.97267481330618 28.361290322580643  32.17922606924644 29.006451612903227  31.873727087576377 29.006451612903227  C 31.839782756279707 29.006451612903227  31.50033944331297 28.79139784946236  30.855397148676172 28.361290322580643  C 30.210454854039376 27.931182795698923  29.34911744738629 27.5010752688172  28.271384928716902 27.070967741935487  C 27.193652410047527 26.640860215053767  26.103190767141893 26.425806451612903  25 26.425806451612903  C 23.896809232858114 26.425806451612903  22.806347589952477 26.640860215053767  21.728615071283095 27.070967741935487  C 20.650882552613716 27.5010752688172  19.79378818737271 27.931182795698923  19.157331975560083 28.361290322580643  C 18.520875763747455 28.79139784946236  18.177189409368637 29.006451612903227  18.126272912423623 29.006451612903227  C 17.820773930753564 29.006451612903227  17.027325186693822 28.361290322580643  15.745926680244398 27.070967741935487  C 14.464528173794978 25.78064516129032  13.823828920570264 24.980645161290322  13.823828920570264 24.670967741935485  C 13.823828920570264 24.447311827956987  13.90868974881195 24.24946236559139  14.078411405295316 24.07741935483871  C 15.402240325865579 22.752688172043012  17.06551255940258 21.711827956989243  19.06822810590631 20.95483870967742  C 21.070943652410048 20.19784946236559  23.04820095044128 19.81935483870968  25 19.81935483870968  C 26.951799049558726 19.81935483870968  28.929056347589956 20.19784946236559  30.931771894093686 20.95483870967742  C 32.93448744059742 21.711827956989243  34.59775967413442 22.752688172043012  35.92158859470469 24.07741935483871  C 36.091310251188055 24.24946236559139  36.176171079429736 24.447311827956987  36.176171079429736 24.670967741935485  C 36.176171079429736 24.980645161290322  35.535471826205026 25.78064516129032  34.2540733197556 27.070967741935487  Z M 41.16598778004074 20.051612903225806  C 39.89307535641549 21.34193548387097  39.112355736591994 21.987096774193553  38.823828920570264 21.987096774193553  C 38.63713509843856 21.987096774193553  38.44195519348269 21.91827956989247  38.23828920570265 21.780645161290323  C 35.93007467752886 19.974193548387095  33.791581805838426 18.645161290322584  31.822810590631363 17.793548387096777  C 29.854039375424307 16.941935483870967  27.57976917854719 16.516129032258064  25 16.516129032258064  C 23.55736591989138 16.516129032258064  22.110488798370675 16.705376344086023  20.659368635437882 17.083870967741937  C 19.20824847250509 17.462365591397848  17.943822131704003 17.91827956989247  16.866089613034625 18.451612903225808  C 15.788357094365244 18.98494623655914  14.82518669382213 19.51827956989247  13.976578411405297 20.051612903225806  C 13.127970128988462 20.584946236559137  12.45756958587916 21.040860215053762  11.965376782077392 21.41935483870968  C 11.47318397827563 21.79784946236559  11.21011541072641 21.987096774193553  11.176171079429736 21.987096774193553  C 10.887644263408012 21.987096774193553  10.10692464358452 21.34193548387097  8.834012219959266 20.051612903225806  C 7.5610997963340125 18.761290322580646  6.924643584521386 17.961290322580645  6.924643584521386 17.651612903225807  C 6.924643584521386 17.44516129032258  7.00950441276307 17.255913978494622  7.179226069246436 17.083870967741937  C 9.419551934826885 14.81290322580645  12.135098438560762 13.049462365591397  15.325865580448065 11.793548387096774  C 18.516632722335373 10.537634408602148  21.74134419551935 9.90967741935484  25 9.90967741935484  C 28.258655804480654 9.90967741935484  31.48336727766463 10.537634408602148  34.67413441955193 11.793548387096774  C 37.86490156143925 13.049462365591397  40.580448065173115 14.81290322580645  42.82077393075356 17.083870967741937  C 42.990495587236936 17.255913978494622  43.07535641547862 17.44516129032258  43.075356415478616 17.651612903225807  C 43.07535641547862 17.961290322580645  42.438900203665995 18.761290322580646  41.16598778004074 20.051612903225806  Z M 48.07790224032586 13.058064516129033  C 46.79650373387644 14.348387096774195  46.011541072640874 14.993548387096773  45.723014256619145 14.993548387096773  C 45.53632043448745 14.993548387096773  45.34962661235574 14.916129032258066  45.16293279022403 14.761290322580644  C 42.12491513917176 12.06021505376344  38.97233536999322 10.025806451612901  35.705193482688394 8.658064516129032  C 32.43805159538357 7.29032258064516  28.869653767820775 6.606451612903226  25 6.606451612903226  C 21.130346232179225 6.606451612903226  17.56194840461643 7.29032258064516  14.29480651731161 8.658064516129032  C 11.027664630006791 10.025806451612901  7.875084860828243 12.06021505376344  4.8370672097759675 14.761290322580644  C 4.650373387644264 14.916129032258066  4.46367956551256 14.993548387096773  4.276985743380855 14.993548387096773  C 3.9884589273591313 14.993548387096773  3.2034962661235573 14.348387096774195  1.9220977596741344 13.058064516129033  C 0.6406992532247116 11.767741935483873  0 10.96774193548387  0 10.658064516129034  C 0 10.434408602150537  0.0848608282416837 10.236559139784944  0.2545824847250509 10.064516129032256  C 3.4283774609640196 6.864516129032257  7.204684317718941 4.38709677419355  11.583503054989816 2.632258064516129  C 15.962321792260692 0.8774193548387084  20.434487440597422 0  25 0  C 29.565512559402585 0  34.037678207739305 0.8774193548387084  38.41649694501018 2.632258064516129  C 42.795315682281064 4.38709677419355  46.571622539035985 6.864516129032257  49.74541751527495 10.064516129032256  C 49.91513917175831 10.236559139784944  50 10.434408602150537  50 10.658064516129034  C 50 10.96774193548387  49.35930074677529 11.767741935483873  48.07790224032586 13.058064516129033  Z " fill-rule="nonzero" fill="#0356f9" stroke="none" transform="matrix(1 0 0 1 43 268 )" />
  </g>
</svg>