<?xml version="1.0" encoding="utf-8"?>
<svg version="1.1" xmlns:xlink="http://www.w3.org/1999/xlink" width="43px" height="42px" xmlns="http://www.w3.org/2000/svg">
  <g transform="matrix(1 0 0 1 -827 -582 )">
    <path d="M 13.857421875 33.87890625  C 16.190321180555557 35.209635416666664  18.73784722222222 35.875  21 35.875  L 21 6.125000000000002  C 18.73784722222222 6.125000000000002  16.190321180555557 6.790364583333333  13.857421875 8.12109375  C 11.524522569444445 9.451822916666663  9.676866319444445 11.256510416666663  8.314453125 13.53515625  C 6.952039930555556 15.813802083333332  6.270833333333334 18.302083333333332  6.270833333333334 21  C 6.270833333333334 23.697916666666668  6.952039930555556 26.186197916666664  8.314453125 28.46484375  C 9.676866319444445 30.74348958333333  11.524522569444445 32.548177083333336  13.857421875 33.87890625  Z M 40.116536458333336 10.458984375  C 42.03884548611111 13.676432291666663  43 17.19010416666666  43 21  C 43 24.809895833333336  42.03884548611111 28.32356770833333  40.116536458333336 31.541015625  C 38.19422743055556 34.758463541666664  35.58604600694444 37.305989583333336  32.2919921875 39.18359375  C 28.99793836805556 41.06119791666667  25.40060763888889 42  21.5 42  C 17.59939236111111 42  14.002061631944445 41.06119791666667  10.7080078125 39.18359375  C 7.413953993055556 37.305989583333336  4.805772569444445 34.758463541666664  2.883463541666667 31.541015625  C 0.9611545138888887 28.32356770833333  0 24.809895833333336  0 21  C 0 17.19010416666666  0.9611545138888887 13.676432291666663  2.883463541666667 10.458984375  C 4.805772569444445 7.241536458333333  7.413953993055556 4.6940104166666625  10.7080078125 2.8164062499999982  C 14.002061631944445 0.9388020833333297  17.59939236111111 0  21.5 0  C 25.40060763888889 0  28.99793836805556 0.9388020833333297  32.2919921875 2.8164062499999982  C 35.58604600694444 4.6940104166666625  38.19422743055556 7.241536458333333  40.116536458333336 10.458984375  Z " fill-rule="nonzero" fill="#0356f9" stroke="none" transform="matrix(1 0 0 1 827 582 )" />
  </g>
</svg>