<?xml version="1.0" encoding="utf-8"?>
<svg version="1.1" xmlns:xlink="http://www.w3.org/1999/xlink" width="79px" height="69px" xmlns="http://www.w3.org/2000/svg">
  <g transform="matrix(1 0 0 1 -601 -177 )">
    <path d="M 44.71241648106905 57.99068509615385  C 44.990998515219005 57.72806490384615  45.130289532293986 57.403245192307686  45.130289532293986 57.01622596153847  L 45.130289532293986 49.13762019230769  C 45.130289532293986 48.75060096153846  44.990998515219005 48.42578125  44.71241648106905 48.16316105769231  C 44.433834446919086 47.90054086538462  44.10393466963623 47.76923076923077  43.72271714922049 47.76923076923077  L 35.277282850779514 47.76923076923077  C 34.896065330363776 47.76923076923077  34.56616555308092 47.90054086538462  34.28758351893096 48.16316105769231  C 34.009001484780995 48.42578125  33.869710467706014 48.75060096153846  33.869710467706014 49.13762019230769  L 33.869710467706014 57.01622596153847  C 33.869710467706014 57.403245192307686  34.009001484780995 57.72806490384615  34.28758351893096 57.99068509615385  C 34.56616555308092 58.25330528846153  34.896065330363776 58.38461538461539  35.277282850779514 58.38461538461539  L 43.72271714922049 58.38461538461539  C 44.10393466963623 58.38461538461539  44.433834446919086 58.25330528846153  44.71241648106905 57.99068509615385  Z M 44.5804565701559 42.19200721153847  C 44.859038604305866 42.01231971153846  45.01299183370453 41.78425480769231  45.04231625835189 41.5078125  L 45.834075723830736 22.474759615384617  C 45.834075723830736 22.143028846153847  45.68745360059391 21.880408653846146  45.39420935412027 21.686899038461537  C 45.01299183370454 21.382812499999996  44.661098737936165 21.230769230769234  44.338530066815146 21.230769230769234  L 34.661469933184854 21.230769230769234  C 34.33890126206385 21.230769230769234  33.987008166295475 21.382812499999996  33.60579064587973 21.686899038461537  C 33.31254639940609 21.880408653846146  33.165924276169264 22.170673076923066  33.165924276169264 22.557692307692303  L 33.913697104677055 41.5078125  C 33.913697104677055 41.78425480769231  34.06031922791389 42.01231971153846  34.35356347438753 42.19200721153847  C 34.646807720861176 42.37169471153845  34.99870081662955 42.46153846153847  35.409242761692646 42.46153846153847  L 43.5467706013363 42.46153846153847  C 43.95731254639941 42.46153846153847  44.30187453600594 42.37169471153845  44.5804565701559 42.19200721153847  Z M 42.35913140311804 0.746394230769232  C 43.23886414253898 1.2439903846153841  43.92798812175205 1.9212740384615334  44.426503340757236 2.778245192307696  L 78.20824053452115 61.16286057692308  C 79.23459539717892 62.90444711538461  79.20527097253155 64.64603365384615  78.12026726057907 66.3876201923077  C 77.62175204157387 67.18930288461539  76.93995916852265 67.8251201923077  76.07488864142539 68.29507211538461  C 75.20981811432814 68.76502403846153  74.27876763177433 69  73.28173719376392 69  L 5.718262806236081 69  C 4.721232368225687 69  3.790181885671864 68.76502403846153  2.9251113585746102 68.29507211538461  C 2.060040831477357 67.8251201923077  1.3782479584261322 67.18930288461539  0.8797327394209354 66.3876201923077  C -0.20527097253155163 64.64603365384615  -0.23459539717891617 62.90444711538461  0.7917594654788419 61.16286057692308  L 34.573496659242764 2.778245192307696  C 35.07201187824796 1.9212740384615334  35.76113585746103 1.2439903846153841  36.64086859688196 0.746394230769232  C 37.5206013363029 0.24879807692307987  38.473645137342245 0  39.5 0  C 40.52635486265776 0  41.479398663697104 0.24879807692307987  42.35913140311804 0.746394230769232  Z " fill-rule="nonzero" fill="#ffffff" stroke="none" transform="matrix(1 0 0 1 601 177 )" />
  </g>
</svg>